<?xml version="1.0" standalone="no"?>
<!DOCTYPE svg PUBLIC "-//W3C//DTD SVG 1.1//EN" "http://www.w3.org/Graphics/SVG/1.1/DTD/svg11.dtd">
<svg xmlns="http://www.w3.org/2000/svg">
<metadata>Generated by Fontastic.me</metadata>
<defs>
<font id="icons-font" horiz-adv-x="512">
<font-face font-family="icons-font" units-per-em="512" ascent="480" descent="-32"/>
<missing-glyph horiz-adv-x="512" />

<glyph glyph-name="24" unicode="&#97;" d="M205 231l-8-8c-2-2-2-2-2-4l0-4c0-4 2-6 6-6l49 0c4 0 6 2 6 6l0 4c0 4-2 6-6 6l-27 0c19 17 31 31 31 47 0 15-8 29-29 29-8 0-18-2-24-8-2-2-2-4-2-8l2-4c0-2 2-2 4-5 2 0 4 0 4 0 4 5 8 5 14 5 8 0 15-5 15-13-2-6-13-18-33-37z m88 70c-4 0-6 0-6-2l-37-53c0 0-2-2-2-4l0-4c0-5 2-7 6-7l33 0 0-16c0-4 2-6 6-6l6 0c4 0 6 2 6 6l0 16 6 0c4 0 6 2 6 7l0 4c0 4-2 6-6 6l-6 0 0 47c0 4-2 6-6 6l-6 0c2 0 0 0 0 0z m-4-53l-19 0c4 6 13 18 19 26z m-33-129c-70 0-127 57-127 127 0 65 51 123 117 127l0-21c0-2 0-2 2-4l4 0 47 31c2 0 2 2 2 4 0 2 0 2-2 4l-47 31c-2 0-2 0-4 0-2 2-2 0-2-4l0-17c-80-4-144-69-144-151 0-84 70-154 154-154 39 0 76 14 104 41l-18 19c-23-19-53-33-86-33z m131 209c-6 8-12 16-18 24l-19-18c6-6 10-12 15-21z m-4-62l27 4c-2 11-4 21-7 29l-24-8c0-10 2-19 4-25z m-39 107c-8 6-16 10-27 16l-10-27c8-4 15-8 23-12z m10-207l21-16c6 8 12 16 16 24l-22 12c-4-8-9-12-15-20z m29 70c0-9-2-17-4-25l24-6c3 10 5 20 7 31z"/>
<glyph glyph-name="24-phone" unicode="&#98;" d="M272 399c-47 0-88-22-112-57 6-4 10-8 14-14 19 28 49 47 84 51l14-25 15 25c53-6 96-49 102-103l-24-14 24-14c-4-35-24-66-53-84 2-4 2-8 2-12 0-5 0-7 0-9 43 23 72 68 72 121 0 74-62 135-138 135z m35-225c-31 25-41 12-55-2-10-10-35 10-57 33-23 22-43 47-33 57 14 14 26 23 2 55-25 31-43 9-55-6-17-16 0-75 57-135 59-59 119-74 135-57 14 12 39 31 6 55z m-96 68c0 28 33 32 33 43 0 6-4 8-8 8-9 0-11-8-11-8l-14 10c0 0 6 16 27 16 12 0 26-6 26-22 0-25-31-29-31-39l33 0 0-17-53 0c-2 3-2 7-2 9z m61 20l29 47 23 0 0-43 8 0 0-16-8 0 0-19-17 0 0 19-33 0z m35 4l0 17c0 4 0 8 0 8 0 0-2-4-4-8l-12-19z"/>
<glyph glyph-name="alarm" unicode="&#99;" d="M199 354l-17 17c-28-21-47-54-49-92l23 0c4 32 18 59 43 75z m157-75l23 0c-2 36-21 69-47 92l-17-17c23-16 37-43 41-75z m-24-5c0 37-25 66-60 74l0 8c0 11-8 19-18 19-10 0-18-8-18-19l0-8c-31-8-56-39-56-74l0-63-22-23 0-12 198 0 0 12-22 23 0 63z m-76-135l4 0c8 2 14 6 16 15 3 2 3 6 3 10l-48 0c2-14 13-25 25-25z"/>
<glyph glyph-name="android" unicode="&#100;" d="M133 315c-12 0-20-8-20-20l0-88c0-10 8-21 20-21 10 0 21 9 21 21l0 88c0 10-9 20-21 20z m31-141c0-10 8-18 18-18l21 0 0-47c0-11 8-21 20-21 10 0 21 8 21 21l0 47 26 0 0-47c0-11 9-21 21-21 10 0 20 8 20 21l0 47 21 0c10 0 18 8 18 18l0 137-186 0z m139 221l16 25c0 2 0 4 0 4-2 2-4 0-4 0l-16-25c-12 4-27 9-41 9-14 0-29-2-41-9l-16 23c0 2-2 2-4 0-2 0-2-4 0-4l16-25c-31-12-51-39-51-67 0-2 0-4 0-7l186 0c0 3 0 5 0 7 2 28-18 55-45 69z m-90-43c-4 0-8 4-8 8 0 5 2 9 8 9 4 0 8-4 8-9 0-4-4-8-8-8z m86 0c-4 0-8 4-8 8 0 5 4 9 8 9 6 0 8-4 8-9 0-4-2-8-8-8z m80-37c-12 0-21-8-21-20l0-88c0-10 9-21 21-21 10 0 20 9 20 21l0 88c0 10-8 20-20 20z"/>
<glyph glyph-name="apple" unicode="&#101;" d="M338 246c0 37 31 57 33 57-19 27-45 29-56 29-22 2-45-13-57-13-12 0-29 13-49 13-27 0-49-15-62-37-26-45-6-115 21-154 12-18 29-39 47-37 21 0 27 13 49 13 23 0 29-13 49-13 21 0 35 19 45 37 15 21 21 43 21 43-2 2-41 17-41 62z m-39 114c10 13 18 31 16 48-14 0-32-11-45-23-10-12-18-29-16-47 16-2 35 8 45 22z"/>
<glyph glyph-name="arrow" unicode="&#102;" d="M164 250c0-6 6-12 12-12l100 0-43-43c-4-5-4-13 0-17l13-12c4-4 12-4 16 0l82 82c2 2 4 6 4 8 0 4-2 6-4 8l-82 82c-4 4-12 4-16 0l-13-12c-4-4-4-12 0-17l43-43-100 0c-6 0-12-6-12-12z"/>
<glyph glyph-name="arrow-3" unicode="&#103;" d="M285 307c-105-14-148-88-162-162 37 52 88 76 162 76l0-61 104 104-104 105z"/>
<glyph glyph-name="arrow-2" unicode="&#104;" d="M211 143c-4 0-8 2-10 4-6 7-6 17 0 23l84 86-90 88c-7 4-7 14 0 21 6 6 16 6 22 0l102-99c3-2 5-6 5-10 0-4-2-8-5-10l-96-99c-4-4-8-4-12-4z"/>
<glyph glyph-name="arrow-4" unicode="&#105;" d="M223 338l-18-19 63-63-63-63 18-19 84 84z"/>
<glyph glyph-name="arrow-5" unicode="&#106;" d="M184 131l129 125-129 125 6 8 138-133-138-133z"/>
<glyph glyph-name="arrow-6" unicode="&#107;" d="M408 262l-56 55c-4 5-8 5-12 0-4-4-4-8 0-12l41-41-266 0c-4 0-9-4-9-8 0-4 5-8 9-8l266 0-41-41c-4-4-4-8 0-12 2-2 4-2 6-2 2 0 4 2 6 2l56 55c4 4 4 8 0 12z"/>
<glyph glyph-name="attached" unicode="&#108;" d="M367 262l-78-78c-17-16-43-16-60 0-16 17-16 43 0 60l78 78 12-13-77-78c-9-8-9-24 0-32 8-9 24-9 32 0l78 77c23 23 23 58 0 78-22 23-57 23-78 0l-118-118c-23-23-23-58 0-78 22-23 57-23 77 0 7-2 15-4 23-4l-8-9c-29-28-76-28-105 0-28 29-28 76 0 105l119 119c29 28 76 28 105 0 30-31 30-78 0-107z"/>
<glyph glyph-name="battery" unicode="&#109;" d="M401 283l-16 0 0 32c0 4-4 9-8 9l-266 0c-5 0-9-5-9-9l0-118c0-4 4-9 9-9l264 0c4 0 8 5 8 9l0 34 16 0c4 0 9 5 9 9l0 34c2 5-2 9-7 9z m-39-74l-157 0 76 94 79 0c2 0 2-94 2-94z"/>
<glyph glyph-name="car" unicode="&#110;" d="M397 295c-2 2-4 2-6 2l-29 0c-6 18-16 37-26 43-35 22-129 22-164 0-8-6-16-25-25-43l-26 0c-2 0-4 0-6-2-2-2-2-4-2-6l4-21c0-4 4-6 6-6l8 0c-8-8-12-20-12-33 0-14 6-26 14-36l0-29c0-6 4-10 10-10l27 0c6 0 10 4 10 10l0 10 144 0 0-10c0-6 4-10 10-10l26 0c7 0 11 4 11 10l0 26c10 11 16 23 16 37 0 13-4 25-12 33l8 0c4 0 6 2 8 6l4 21c4 4 4 6 2 8z m-211 27c29 18 113 18 140 0 6-5 12-19 18-35l-176 0c6 16 12 30 18 35z m-32-95c0 13 10 23 22 23 12 0 23-10 23-23 0-12-11-22-23-22-12 2-22 10-22 22z m184-20c-12 0-23 10-23 22 0 13 11 23 23 23 12 0 22-10 22-23-2-14-10-22-22-22z"/>
<glyph glyph-name="calendar-2" unicode="&#111;" d="M186 326l4 0c7 0 11 4 11 10l0 41c0 6-4 10-11 10l-4 0c-6 0-10-4-10-10l0-39c0-8 4-12 10-12z m76-80l31 0c2 0 2 0 2 2l0 26c0 2 0 2-2 2l-31 0c-2 0-2 0-2-2l2-28c-2 0 0 0 0 0z m51 0l31 0c2 0 2 0 2 2l0 26c0 2 0 2-2 2l-31 0c-2 0-2 0-2-2l2-28c-2 0-2 0 0 0z m-149-43l31 0c2 0 2 0 2 2l0 26c0 2 0 2-2 2l-31 0c-2 0-2 0-2-2l2-28c-4 0-2 0 0 0z m49 0l31 0c2 0 2 0 2 2l0 26c0 2 0 2-2 2l-31 0c-2 0-2 0-2-2l2-28c-2 0-2 0 0 0z m49 0l31 0c2 0 2 0 2 2l0 26c0 2 0 2-2 2l-31 0c-2 0-2 0-2-2l2-28c-2 0 0 0 0 0z m51 0l31 0c2 0 2 0 2 2l0 26c0 2 0 2-2 2l-31 0c-2 0-2 0-2-2l2-28c-2 0-2 0 0 0z m-120-13l-31 0c-2 0-2 0-2-2l0-26c0-2 0-2 2-2l31 0c2 0 2 0 2 2l-2 28c4-2 2 0 0 0z m51 0l-31 0c-2 0-2 0-2-2l0-26c0-2 0-2 2-2l31 0c2 0 2 0 2 2z m49 0l-31 0c-2 0-2 0-2-2l0-26c0-2 0-2 2-2l31 0c2 0 2 0 2 2l-2 28c2-2 2 0 0 0z m51 0l-31 0c-2 0-2 0-2-2l0-26c0-2 0-2 2-2l31 0c2 0 2 0 2 2z m-25 136l5 0c6 0 10 4 10 10l0 41c0 6-4 10-10 10l-5 0c-6 0-10-4-10-10l0-39c0-6 6-12 10-12z m52 39l-27 0 0-31c0-10-8-17-18-17l-4 0c-11 0-19 9-19 19l0 31-92 0 0-29c0-10-8-19-18-19l-5 0c-10 0-18 9-18 19l0 29-31 0c-10 0-16-11-16-17l0-207c0-10 8-16 16-16l232 0c10 0 16 8 16 16l0 205c0 10-8 17-16 17z m0-224l-234 0 0 156 232 0z"/>
<glyph glyph-name="calendar" unicode="&#112;" d="M162 285l37 0 0-33-37 0z m51 0l37 0 0-33-37 0z m49 0l37 0 0-33-37 0z m51 0l37 0 0-33-37 0z m-151-45l37 0 0-33-37 0z m51 0l37 0 0-33-37 0z m49 0l37 0 0-33-37 0z m51 0l37 0 0-33-37 0z m-151-45l37 0 0-33-37 0z m51 0l37 0 0-33-37 0z m49 0l37 0 0-33-37 0z m51 0l37 0 0-33-37 0z m45 178l-8 0 0 10c0 12-10 23-22 23-13 0-23-11-23-23l0-10-22 0 0 10c0 12-11 23-23 23-12 0-22-11-22-23l0-10-23 0 0 10c0 12-10 23-22 23-13 0-23-11-23-23l0-10-12 0c-19 0-35-17-35-35l0-197c0-18 16-35 35-35l196 0c19 0 35 17 35 35l0 197c4 18-12 35-31 35z m-41 10c0 6 5 10 11 10 6 0 10-4 10-10l0-41c0-6-4-10-10-10-6 0-11 4-11 10z m-67 0c0 6 4 10 10 10 6 0 10-4 10-10l0-41c0-6-4-10-10-10-6 0-10 4-10 10z m-68 0c0 6 4 10 11 10 6 0 10-4 10-10l0-41c0-6-4-10-10-10-7 0-11 4-11 10z m187-242c0-8-7-14-15-14l-196 0c-8 0-15 6-15 14l0 181 226 0z"/>
<glyph glyph-name="bookmark-2" unicode="&#113;" d="M150 408l0-328 102 72 102-72 0 328z"/>
<glyph glyph-name="bookmark-3" unicode="&#114;" d="M344 403l0-321c0-2-2-4-4-4 0 0-2 0-2 0-2 0-2 0-4 2l-84 72-84-72c-2-2-4-2-6 0-2 0-4 2-4 4l0 319c2 5 4 7 8 7l174 0c2 0 6-2 6-7z"/>
<glyph glyph-name="bookmark" unicode="&#115;" d="M143 387l0-287 109 111 104-111 0 287z"/>
<glyph glyph-name="book-3" unicode="&#116;" d="M123 369l47 0 0-25-47 0z m0-33l47 0 0-162-47 0z m8-133c0-8 6-15 14-15 9 0 15 7 15 15 0 8-6 14-15 14-6 0-14-6-14-14z m-8-60l47 0 0 19-47 0z m57 23l0-23 62 0 0 23c-2 2-11 6-29 6-16 0-27-4-33-6z m0 137c4-2 17-6 33-6 18 0 27 4 29 6l0 19-62 0z m0-10l0-117c6 2 19 6 33 6 14 0 23-2 29-4l0 115c-6-2-15-4-29-4-14 0-27 2-33 4z m164 76l-33-7 4-22 33 6z m39-191l-33-6-33 160 33 6z m-10 27c-2 8-8 14-15 12-6-2-10-8-8-16 2-8 8-15 15-13 6 2 8 11 8 17z m12-37l-33-6 4-19 33 7z m-129 176l47 0 0 25-47 0z m0-201l47 0 0 19-47 0z m0 54l47 0 0 114-47 0z m0-25l47 0 0 14-47 0z m0 150l47 0 0 14-47 0z"/>
<glyph glyph-name="book-2" unicode="&#117;" d="M387 272c-2 9-2 23 6 29 6 2 13 4 6 8l-98 29-154-21c0 0-18-2-16-28 0-17 4-23 8-27l-14-4c-4-4 0-6 6-8 8-4 6-21 6-29-26-12-14-14-14-14l6-2c-4-4-8-12-8-25 2-26 16-28 16-28l103-35 153 37c0 0 13 2-18 12-2 8-2 22 6 29 6 2 12 4 6 8l-6 2c4 2 12 8 12 26 0 15-2 21-6 25l14 2c5 4 17 8-14 14z m-129 0l25 4 88 19 14 2c-4-6-4-18-2-25 0-2 0-2 0-4l-14-4-111-26z m-111-26l15-2 84-19 6-2 22-4 0-35-112 27-12 2c0 0 0 2 0 4 2 10 2 23-3 29z m-4 43c0 6 2 14 4 16 3 2 5 2 5 2l2 0 67-22 35-13 0-34-94 28-4 2c-6 0-15 0-15 21z m101-154l-101 27c0 0-8 0-8 22 0 6 2 15 4 17 2 2 4 2 4 2l2 0 103-35z m131 33c0-2 0-2 0-4l-125-31 0 35 26 4 5 0 16 4 68 14 14 3c-6-7-6-17-4-25z m6 45l-8-2-90-25 0 35 28 8 70 23c0 0 4 0 6-2 2-2 4-8 4-17 0-16-10-20-10-20z"/>
<glyph glyph-name="book" unicode="&#118;" d="M371 387l-29 0 0-72c0-2-2-4-4-4 0 0 0 0-2 0-2 0-4 0-4 2l-17 29-16-29c-2-2-4-2-8-2-4 0-4 2-4 4l0 72-113 0c-8 0-12-4-12-12l0-19-2 0c-15 0-27-12-27-26 0-15 12-27 27-27l2 0 0-88-2 0c-15 0-27-12-27-27 0-14 12-26 27-26l2 0 0-27c0-8 4-12 12-12l191 0c8 0 12 4 12 12l0 244c4 4 0 8-6 8z m-183-213l-24 0c-8 0-12 4-12 12 0 9 4 13 12 13l24 0c9 0 13-4 13-13 0-4-6-12-13-12z m0 143l-24 0c-8 0-12 5-12 13 0 8 6 12 12 12l24 0c9 0 13-4 13-12 0-8-6-13-13-13z"/>
<glyph glyph-name="bluetooth-2" unicode="&#119;" d="M348 317l-84 84-14 0 0-110-66 65-20-20 82-82-82-82 20-20 68 67 0-110 14 0 84 84-61 61z m-67 29l26-27-26-26z m28-151l-26-27 0 53z"/>
<glyph glyph-name="bluetooth" unicode="&#120;" d="M254 256l61 61c4 5 4 9 0 13l-67 67c-2 4-6 4-8 2-2-2-4-4-4-8l0-131-39-43c-4-4-4-8 0-12 2-2 4-2 6-2 2 0 4 2 6 2l27 31 0-113c0-4 2-6 4-8 2-2 2-2 4-2 2 0 4 2 6 2l67 67c5 4 5 8 0 13z m-4 115l47-49-47-48z m0-230l0 95 47-50z"/>
<glyph glyph-name="behance" unicode="&#121;" d="M381 324l-78 0 0 18 78 0z m-129-78c4-8 8-17 8-29 0-12-2-22-8-31-4-6-8-10-14-14-7-4-13-8-23-10-8-2-16-2-27-2l-86 0 0 192 93 0c22 0 38-6 49-20 6-8 8-19 8-29 0-12-2-20-8-29-4-4-8-8-15-10 11-4 19-10 23-18z m-105 30l41 0c9 0 15 3 21 5 6 4 8 8 8 16 0 8-4 14-10 18-6 2-14 2-23 2l-34 0 0-41z m72-55c0 10-4 17-12 21-4 2-10 4-19 4l-41 0 0-51 41 0c9 0 15 2 19 4 8 4 12 10 12 22z m191 31c0-6 0-14 0-27l-101 0c0-14 6-22 15-28 6-4 12-7 20-7 8 0 14 3 21 7 2 2 6 6 8 10l37 0c0-8-7-17-13-25-12-12-28-20-51-20-18 0-35 6-49 16-14 10-21 29-21 55 0 25 7 41 19 56 12 12 29 18 49 18 12 0 23-2 33-6 10-4 18-10 24-20 2-9 7-19 9-29z m-37-4c0 10-4 16-11 22-6 4-12 9-20 9-8 0-16-3-20-9-5-6-9-12-11-20l62 0z"/>
<glyph glyph-name="battery-2" unicode="&#122;" d="M272 313l-59-77 39 0-16-58 59 78-39 0z m15 86l-66 0c-8 0-12-6-12-12l0-12-25 0c-10 0-20-8-20-21l0-223c0-10 8-20 20-20l144 0c10 0 20 8 20 20l0 223c0 11-8 21-20 21l-27 0 0 12c0 6-6 12-14 12z m41-39c4 0 6-2 6-6l0-223c0-4-2-6-6-6l-144 0c-4 0-6 2-6 6l0 223c0 4 2 6 6 6z"/>
<glyph glyph-name="car-2" unicode="&#65;" d="M236 324c-3 0-7 0-9 0-4 0-6 0-10 0-8 0-18 0-27 0-8 0-16 0-24-2-4 0-8-3-12-3-2 0-7-2-11-2-2 0-6 0-8 0-2 0-2 0-2 0 0 0 0-2 0-4l4-2c0 0-6-4-8-6-2-2-4-4-8-6-2-2-4-4-6-6-2-2-4-6-4-6 0 0-2 0-5 0 0 0-4-2-4-2-2-2-2-4-4-6 0 0 2 2 4 2 2 0 2 0 4 0 3 0 3 0 5 0 2 0 4-2 6-2 2 0 4-3 4-3 0 0 0-2 0-2 0 0 0-2-2-2-2-4-6-6-8-8-2-2-5-4-7-4-2 0-2 0-4-2-2 0-2 0-4 0 0 0-2 0-2 2 0 0 0 2 0 2 0 2 0 2 0 4 0 2 0 2 0 4 0 0 0 2 0 2 0 0 0 0-2 2 0-2 0-4 0-6 0-2 0-6 0-8 0 0 0 0-2-2 0 0-2-2-2-2 0-2 0-4 0-6 0-6 0-12 0-19 0-4 0-4 0-4 0-2 2-2 2-4 2-2 2-4 4-4 2-2 4-2 4-4 0 0 2 0 2 0 0 2 0 2 0 4 0 17 15 31 31 31 16 0 31-14 31-31 0-2 0-4 0-6 0 0 2 0 2 0 51 0 86-2 155-2 3 0 0 0 3 0 0 2-3 6-3 8 0 17 15 31 31 31 17 0 31-14 31-31 0-4 0-6-2-10 2 0 2 0 2 0 2 0 4 0 6 0 2 0 6 0 8 2 2 0 4 2 6 2 2 0 2 2 5 4 0 0 0 2 2 2 0 0 0 0 2 0 0 0 2 2 2 2 0 0 0 0 0 2 0 0 0 0 0 2 0 0 0 2 0 2 0 4 0 6 0 11 0 4 0 6 0 10 0 2 0 6 0 8 0 2-2 4-2 6 0 2-2 4-2 6-2 2-2 4-5 4-2 2-4 2-6 4-6 3-12 5-20 7-10 2-19 4-29 6-2 0-4 0-6 0 0 0-2 0-2 0-2 0-4 0-4 0 2-2 6-4 6-4 0 0-2-2-4-2-2 0-4 0-4 0-2 2-2 2-2 2-2 2-4 4-6 4-4 2-9 6-11 8-4 2-6 4-10 6-4 2-6 4-10 6-4 2-8 4-12 6-4 2-9 4-15 4-4 3-10 5-14 5-4 0-8 2-12 2 0-4-2-4-6-2z m-21-43c0 0-18 0-29 0-8 0-24 0-24 0 0 0 0 10 0 14 0 4 0 10 0 14 2 2 2 2 2 2 4 0 6 2 10 2 4 0 10 2 14 2 5 0 9 0 15 0 4 0 10 0 10 0z m12 34c0 0 4 0 9 0 4 0 8 0 12-2 6 0 10-2 14-2 4-2 10-2 14-4 5-2 11-4 11-4l6-22c0 0-2-2-2-5 0-2 0-4 0-4 0 0-6 0-10 0-11 2-19 2-29 2-4 0-14 0-14 0 0 0-5 13-5 19-4 10-6 22-6 22z m-77-32c0 0-9 2-13 2-4 0-8 2-12 4-2 0-2 0-2 2 2 2 4 4 6 6 2 2 6 4 10 6 2 2 6 4 8 4 3 0 7 2 7 2z m139 20c0 0 6-2 10-4 2-2 6-4 8-6 2-2 4-4 4-4 0 0 2-4 2-6 2-4 2-11 2-11 0 0-4 0-6 0-2 0-4 0-4 0 0 0 0 4 0 7 0 2-2 2-2 4 0 0-2 2-4 2-2 0-2 2-4 2-2 0-4 0-4 0 2 4 0 10-2 16z m88-33c0 0 2 0 2 0 2 0 4 0 4 0 2 0 4 0 6 0 2 0 4-2 6-2 2 0 4-2 6-2 2 0 2-2 5-2 0 0 2 0 2 0 2 0 2-2 4-2 2-2 4-2 2-4 0 0 0 0-2 0 0 0-2-2-2-2 0 0 0-2 0-2 0 0-2 0-2 0-2 0-7 0-9 0-2 0-2 0-4 0-2 0-2 2-4 2-4 2-6 4-8 6-2 2-4 4-6 4 0 0-2 2-2 2 0 0 2 0 2 2z m-240-26c-14 0-26-13-26-27 0-14 12-27 26-27 15 0 27 13 27 27 2 14-10 27-27 27z m221-2c-14 0-26-13-26-27 0-14 12-27 26-27 15 0 27 13 27 27 0 14-12 27-27 27z m-221-6c10 0 21-9 21-21 0-12-8-20-21-20-12 0-20 8-20 20 0 12 10 21 20 21z m221 0c11 0 21-9 21-21 0-12-8-20-21-20-10 0-20 8-20 20 0 12 8 21 20 21z"/>
<glyph glyph-name="car-3" unicode="&#66;" d="M117 219l192 0 0-26-139 0c-4 12-14 20-29 20-12 0-22-8-28-18-7 2-9 6-9 12l0 2c0 6 7 10 13 10z m47-33c0-12-10-22-23-22-12 0-22 10-22 22 0 13 10 23 22 23 13 0 23-10 23-23z m-8 0c0 9-6 17-17 17-8 0-16-6-16-17 0-8 6-16 16-16 11 0 17 8 17 16z m231 0c0-12-10-22-22-22-13 0-23 10-23 22 0 13 10 23 23 23 12 0 22-10 22-23z m-6 0c0 9-6 17-16 17-9 0-17-6-17-17 0-8 6-16 17-16 10 0 16 8 16 16z m39 64l0-49c0-2-2-4-4-4l-23 0c-4 10-14 18-26 18-13 0-23-8-27-18l-14 0c-2 0-4 2-4 4l0 100c0 2 2 4 4 4l55 0c2 0 6 0 8-4z m-21 10l-18 31c-2 2-4 4-10 4l-35 0c-2 0-4-2-4-4l0-31c0-2 2-4 4-4l59 0c2 0 4 2 4 4z m17-47c0 2-2 4-4 4-2 0-4-2-4-4l0-8c0-2 2-4 4-4 2 0 4 2 4 4z m-324 14l217 0 0 121-217 0z"/>
<glyph glyph-name="cards" unicode="&#67;" d="M397 375l-188 39c-8 2-16-4-19-13l-4-22 217-45 7 22c2 9-4 17-13 19z m-78-47c-2 8-10 12-18 10l-35-10-84 18-10-43-57-16c-9-2-13-11-11-19l31-116c2-9 10-13 19-11l186 52c8 2 12 10 10 18l-6 20 21-4c8-2 16 4 18 13l12 63-76 16z m21-60l4 23c0 4 4 6 8 4l23-4c4 0 6-4 4-8l-4-23c0-4-4-6-8-4l-23 4c-2 2-4 6-4 8z m-223 6l51 15 123 35 12 4c2 0 2 0 2-2l2-7 4-18-192-53-6 22c2 2 2 4 4 4z m223-67c0-2 0-4-2-4l-186-51c-2 0-2 0-2 2l-19 67 193 53 12-43z"/>
<glyph glyph-name="chat" unicode="&#68;" d="M346 287c0 45-53 82-117 82-63 0-116-37-116-82 0-27 16-49 45-66-4-18-13-41-23-53l0-2 4-2c2 0 54 6 86 39 2 0 4 0 6 0 62 2 115 39 115 84z m51-21c0 31-22 56-57 70 12-14 20-33 20-51 0-52-57-95-129-95 15-4 33-8 50-8 2 0 4 0 6 0 32-35 84-39 86-39 0 0 2 0 2 2l0 2c-10 13-19 35-23 54 29 14 45 41 45 65z"/>
<glyph glyph-name="chat-2" unicode="&#69;" d="M233 385c66 0 119-43 119-96 0-53-53-96-119-96-6 0-12 0-18 2-27-25-55-31-84-31l0 4c16 8 29 22 29 39 0 2 0 4 0 6-27 18-45 45-45 76-2 53 53 96 118 96z m127-217c0-14 9-27 23-33l0-6c-27 0-49 4-72 27-6 0-10 0-16 0-25 0-45 6-64 16 37 0 70 12 97 33 12 10 22 22 30 37 9 14 13 30 13 47 0 2 0 6 0 8 18-14 28-35 28-57 0-27-14-50-39-64 2-6 0-6 0-8z"/>
<glyph glyph-name="chat-4" unicode="&#70;" d="M348 395l-184 0c-29 0-51-22-51-51l0-115c0-28 22-51 51-51l119 0 57-57c2-2 4-2 6-2 2 0 2 0 4 0 4 2 6 6 6 10l0 49c25 4 43 25 43 49l0 113c0 33-22 55-51 55z m31-164c0-16-14-30-31-30l-4 0c-6 0-10-4-10-11l0-34-43 43c-2 2-4 2-6 2l-123 0c-17 0-31 14-31 30l0 115c0 16 14 31 31 31l186 0c17 0 31-15 31-31z m-49 93l-148 0c-6 0-10-5-10-11 0-6 4-10 10-10l148 0c6 0 10 4 10 10 0 6-4 11-10 11z m0-56l-148 0c-6 0-10-4-10-10 0-6 4-10 10-10l148 0c6 0 10 4 10 10 0 6-4 10-10 10z"/>
<glyph glyph-name="check" unicode="&#71;" d="M190 285l-20-23 70-69 153 153-22 23-131-133z m187-29c0-68-55-123-123-123-68 0-123 55-123 123 0 68 55 123 123 123 12 0 22-2 35-4l24 24c-18 7-39 11-57 11-84 0-154-70-154-154 0-84 70-154 154-154 84 0 154 70 154 154z"/>
<glyph glyph-name="chat-3" unicode="&#72;" d="M212 403l228 0 0-201-228 0z m200 0l-172 0c-15 0-27-12-27-26l0-41 57 0c29 0 54-23 54-53l0-45 61-35c2 0 2 0 4 0 0 0 2 2 0 4l-16 45 41 0c14 0 26 12 26 27l0 94c-2 16-14 30-28 30z m-142-96l-172 0c-14 0-26-12-26-26l0-97c0-14 12-26 26-26l41 0-16-45c0-2 0-2 0-4l4 0 88 49 55 0c15 0 27 12 27 26l0 97c0 14-12 26-27 26z"/>
<glyph glyph-name="check-2" unicode="&#73;" d="M221 117c-8 0-16 4-22 10l-72 94c-10 12-6 29 6 39 12 10 29 6 39-6l47-61 119 188c8 12 24 16 39 8 12-8 16-24 8-39l-141-219c-4-8-13-12-23-14z"/>
<glyph glyph-name="check-3" unicode="&#74;" d="M385 336l-12 12c-4 4-15 4-19 0l-129-129-67 68c-4 4-15 4-19 0l-12-13c-4-4-4-14 0-18l90-90c2-2 6-4 8-4 4 0 6 2 8 4l152 151c6 5 6 13 0 19z"/>
<glyph glyph-name="check-4" unicode="&#75;" d="M399 332l-32 33c-5 4-11 4-15 0l-133-134-57 58c-4 4-10 4-15 0l-32-33c-4-4-4-10 0-14l96-97c2-2 4-2 6-2 2 0 4 0 6 2l172 172c2 2 2 5 2 7 0 2 4 6 2 8z"/>
<glyph glyph-name="clock" unicode="&#76;" d="M315 299l-51-29c-2 2-4 2-8 2-2 0-6 0-8-2l-51 29c-4 2-11 0-15-4-2-4 0-10 4-14l54-29c2-8 8-14 16-14 8 0 14 6 16 14l54 29c4 2 6 8 4 14-4 6-11 8-15 4z m-59 100c-80 0-143-63-143-143 0-80 63-143 143-143 80 0 143 63 143 143 0 80-63 143-143 143z m121-139l-12 0c-3 0-3 0-3-2 0 0-2-2-2-2 0-2 0-2 2-4 0 0 3 0 3 0l12 0c0-19-4-35-12-49l-15 8c-4 2-8 0-10-2-2-4 0-8 2-10l14-9c-10-14-22-26-37-34l-6 12c0 2-2 2-4 2 0 0-2 0-2 0 0 0-2-2-2-2 0-2 0-2 0-4l6-12c-14-9-30-13-49-15l0 17c0 4-4 8-8 8-4 0-8-4-8-8l0-17c-17 2-33 6-49 15l6 12c0 0 0 2 0 4 0 2 0 2-2 2 0 0-2 0-2 0-2 0-2 0-4-2l-7-12c-14 8-26 20-36 34l14 9c4 2 6 6 2 10-2 4-6 6-10 2l-15-8c-8 14-12 30-12 49l12 0c2 0 2 0 2 2 0 0 2 2 2 2 0 2-2 4-4 4l-12 0c0 19 4 35 12 49l15-8c2 0 2-2 4-2 2 0 6 2 6 4 2 4 0 8-2 10l-10 11c10 14 22 24 37 34l6-12c0 0 0-2 2-2 2 0 2 0 4 0 0 0 2 2 2 2 0 2 0 2 0 4l-8 12c14 9 30 13 49 15l0-17c0-4 4-8 8-8 4 0 8 4 8 8l0 17c17-2 33-6 49-15l-6-12c-2-2 0-4 2-6 0 0 2 0 2 0 2 0 2 0 4 2l7 12c14-8 26-20 36-34l-14-9c-4-2-6-6-2-10 2-2 4-4 6-4 2 0 2 0 4 2l15 8c4-16 10-32 10-51z"/>
<glyph glyph-name="clock-2" unicode="&#77;" d="M256 399c-80 0-143-63-143-143 0-80 63-143 143-143 80 0 143 63 143 143 0 80-63 143-143 143z m0-274c-72 0-131 59-131 131 0 72 59 131 131 131 72 0 131-59 131-131 0-72-59-131-131-131z m-45 225l-6 10-6-2 6-10c4 0 4 2 6 2z m-59-96c0 2 0 4 0 6l-15 0 0-12 15 0c0 2 0 4 0 6z m112 106l0 15-12 0 0-15c2 0 4 0 6 0 2 0 4 0 6 0z m105-57l-2 6-13-6c2-2 2-4 2-6z m-54 41c2-2 4-2 7-4l6 10-6 4z m-159-27l10-8c2 2 2 4 4 6l-10 9z m147-161l8-17 6 2-8 17c-2 0-4 0-6-2z m41 32l14-10 4 6-14 11c-2-2-4-5-4-7z m23 72c0-2 0-4 0-6 0-2 0-4 0-6l14 0 0 12z m-115-113l0-14 12 0 0 14c-2 0-4 0-6 0-2 0-4 0-6 0z m-62 3l7-5 10 15c-2 2-4 2-6 4z m-43 49l3-6 14 8c0 0 0 2-2 4z m115 151l-8 0 0-98-53-59 2-3 53 58 70 0 0 12-62 0 0 90z"/>
<glyph glyph-name="dropbox" unicode="&#78;" d="M313 178l-57 43-55-43-33 19 0-21 88-57 88 57 0 21z m86 162l-84 53-59-49 88-51z m-286-92l88-51 55 43-84 53z m88 145l-88-55 59-45 84 53z m55-153l57-43 86 51-55 47z"/>
<glyph glyph-name="dribbble" unicode="&#79;" d="M387 283c-2 8-4 16-8 24-4 8-8 17-12 23-5 6-11 14-17 20-6 6-12 12-20 17-6 4-15 8-23 12-8 4-16 6-24 8-9 2-19 2-27 2-8 0-18 0-27-2-8-2-16-4-24-8-8-4-17-8-23-12-6-5-14-11-20-17-6-6-12-12-17-20-4-6-8-15-12-23-4-8-6-16-8-24-2-9-2-19-2-27 0-8 0-18 2-27 2-8 4-16 8-24 4-8 8-17 12-23 5-6 11-14 17-20 6-6 12-12 20-17 6-4 15-8 23-12 8-4 16-6 24-8 9-2 19-2 27-2 8 0 18 0 27 2 8 2 16 4 24 8 8 4 17 8 23 12 6 5 14 11 20 17 6 6 12 12 17 20 4 6 8 15 12 23 4 8 6 16 8 24 2 9 2 19 2 27 0 8 0 18-2 27z m-18-25c-2 0-41 8-80 4 0 2-2 4-2 6-2 6-4 11-8 17 45 18 63 45 63 45 18-21 27-45 27-72z m-37 84c0 0-17-25-60-41-18 35-41 64-43 66 9 2 19 4 27 4 29 0 55-13 76-29z m-103 25z m-22-9c2-2 22-30 43-65-55-14-103-14-105-14 7 36 31 65 62 79z m-66-102c0 2 0 2 0 4 2 0 58-2 117 16 4-6 6-12 10-18-2 0-2 0-4-2-61-20-92-76-92-76-18 21-31 47-31 76z m115-115c-27 0-53 11-72 27 2-2 2-2 2-2 0 0 23 47 90 72 17-41 23-76 25-86-14-7-29-11-45-11z m63 21c-2 6-8 41-22 82 37 6 68-4 72-4-7-33-25-62-50-78z"/>
<glyph glyph-name="download-3" unicode="&#80;" d="M358 215l0-68-206 0 0 68-39 0 0-88c0-10 8-21 20-21l248 0c10 0 20 9 20 21l0 88z m-106 8l-57 70c0 0-9 8 0 8l30 0 0 100c0 0-2 5 6 5l45 0c7 0 7-5 7-5l0-98 28 0c13 0 2-8 2-8 0 0-49-64-55-72-2-6-6 0-6 0z"/>
<glyph glyph-name="download-2" unicode="&#81;" d="M371 297l-66 0 0 98-98 0 0-98-66 0 115-115z m-230-147l0-33 230 0 0 33z"/>
<glyph glyph-name="document-4" unicode="&#82;" d="M348 389l-184 0c-4 0-8-4-8-6l0-252c0-4 4-8 8-8l184 0c4 0 8 4 8 8l0 252c0 2-4 6-8 6z m-8-252l-168 0 0 236 168 0z m-27 213l-114 0c-4 0-6-2-6-6 0-4 2-6 6-6l114 0c4 0 6 2 6 6 0 2-2 6-6 6z m0-28l-114 0c-4 0-6-3-6-7 0-4 2-6 6-6l114 0c4 0 6 2 6 6 0 2-2 7-6 7z m0-29l-114 0c-4 0-6-2-6-6 0-4 2-6 6-6l114 0c4 0 6 2 6 6 0 2-2 6-6 6z m0-31l-114 0c-4 0-6-2-6-6 0-4 2-6 6-6l114 0c4 0 6 2 6 6 0 2-2 6-6 6z m0-29l-114 0c-4 0-6-2-6-6 0-4 2-6 6-6l114 0c4 0 6 2 6 6 0 2-2 6-6 6z m0-30l-114 0c-4 0-6-2-6-6 0-4 2-7 6-7l114 0c4 0 6 3 6 7 0 2-2 6-6 6z m0-29l-114 0c-4 0-6-2-6-6 0-4 2-6 6-6l114 0c4 0 6 2 6 6 0 2-2 6-6 6z"/>
<glyph glyph-name="document-3" unicode="&#83;" d="M270 342l-90 0c-6 0-12-6-12-12 0-6 6-13 12-13l90 0c6 0 13 7 13 13 0 6-4 12-13 12z m13-57c0 6-7 12-13 12l-90 0c-6 0-12-6-12-12 0-6 6-13 12-13l90 0c9 0 13 7 13 13z m-58-58c6 0 13 6 13 13 0 6-7 12-13 12l-45 0c-6 0-12-6-12-12 0-7 6-13 12-13z m92-41l-12-8 0-31-158 0 0 218 158 0 0-48 25 41 0 19c0 6-6 12-13 12l-182 0c-6 0-12-6-12-12l0-242c0-6 6-12 12-12l182 0c7 0 13 6 13 12l0 68-6-10c-2-5-5-7-7-7z m72 148c0 2-2 10-18 20-17 8-25 6-27 6-2 0-2-2-4-2l-74-133 0-2-2-47c0-2 0-4 2-6 2-2 4-2 6 0l39 27 2 2 76 131c0 0 0 2 0 4z m-102-144c-2 3-4 5-6 5-2 2-5 2-9 4l0 14c4 0 9-2 15-4 6-4 10-6 12-10z m-80-20c0-2 4-4 4-4 2 0 4 0 6 2 10 4 23 0 31 0 6 0 6 8 0 8-12 0-21 2-33 2l0 2c-2 4-4 4-8 4 0 0 0 0 0 2 0 2-2 2-2 2 4 7 6 13 4 17 0 2-2 2-4 2-6 0-12-6-15-10-10-11-18-21-26-31-4-4 4-8 8-4 8 10 14 18 25 26-2-4-4-6-7-10-4-4 5-10 9-4 0 2 2 2 2 2l0-2c0 0 0 0 0-2-6-4 2-6 6-2-2 0 0 2 0 0 0 2 0 2 0 0z"/>
<glyph glyph-name="document-2" unicode="&#84;" d="M385 285l-14-15-43 43 14 15c4 4 12 6 16 2l29-29c4-4 2-12-2-16z m-66 20l43-43-102-102c0 0-2-2-4-2l-51-17c-2 0-2 0-4 0 0 0-2 2 0 4l16 54c0 2 2 4 2 4l19 18-64 0c-2 0-4 2-4 4 0 2 2 4 4 4l74 0z m-71-141l-27 26-6-22 10-10z m71 125c-2 2-4 2-6 0l-80-80c-2-2-2-4 0-6 3-2 5-2 7 0l79 80c0 2 0 4 0 6z m-6-152c0-2-2-6-6-6l-94 0-8-2c-2 0-4 0-6 0-4 0-6 2-11 4l-45 0c-2 0-6 2-6 6l0 213c0 2 2 6 6 6l19 0 0-8c0-2 2-6 6-6 2 0 6 2 6 6l0 8 29 0 0-8c0-2 2-6 6-6 2 0 6 2 6 6l0 8 27 0 0-8c0-2 2-6 6-6 2 0 6 2 6 6l0 8 29 0 0-8c0-2 2-6 6-6 2 0 6 2 6 6l0 8 22 0c2 0 5-2 5-6l0-35 16 17 0 20c0 13-8 21-21 21l-30 0 0 12c0 2-2 6-6 6-2 0-7-2-7-6l0-12-28 0 0 12c0 2-2 6-6 6-4 0-7-2-7-6l0-12-26 0 0 12c0 2-2 6-6 6-2 0-6-2-6-6l0-12-29 0 0 12c0 2-2 6-6 6-2 0-6-2-6-6l0-12-11 0c-12 0-20-8-20-21l0-215c0-12 8-20 20-20l166 0c13 0 21 8 21 20l0 74-17-16z m-39 174l-100 0c-2 0-4-2-4-4 0-2 2-4 4-4l100 0c2 0 5 2 5 4 0 2-3 4-5 4z m0-37l-100 0c-2 0-4-2-4-4 0-2 2-4 4-4l100 0c2 0 5 2 5 4 0 2-3 4-5 4z"/>
<glyph glyph-name="dislike" unicode="&#85;" d="M117 248c8-21 24-33 49-33l29 0c-5-10-11-27-11-45 0-6 0-10 2-16 4-23 19-33 41-31 9 0 13 8 19 29 6 16 14 38 24 55 9 12 25 22 37 31l0-2 94 0 0 139-94 0 0-8c-14 0-22 0-24 0l-17 10-12 8c-14 6-68 6-90 2-31-4-37-27-37-29-2-8-23-79-10-110z m26 106c0 0 4 15 23 17 24 4 70 2 78-2 0 0 10-7 10-7l20-12c7-2 17-2 31-2l0-92c-14-6-39-18-51-39-12-20-21-43-27-59 0 0-6-15-6-17-10 0-14 6-16 17 0 4-2 8-2 12 0 27 14 49 14 49l10 14-61 0c-16 0-27 7-31 21-10 22 2 80 8 100z"/>
<glyph glyph-name="clock-4" unicode="&#86;" d="M250 262c0-2 2-6 6-6 2 0 6 2 6 6 0 6 2 12 6 17 8 10 17 22 21 32 0 2 0 4 0 4 0 2-2 2-4 2l-52 0c-2 0-4 0-4-2 0-2-2-4 0-4 4-12 11-22 21-32-2-7 0-11 0-17z m12-22c0 2-2 6-6 6-2 0-6-2-6-6 0-9-4-15-12-21-19-12-31-26-39-41 0-2 0-4 0-6 0-2 2-2 4-2l104 0c2 0 4 0 4 2 0 2 0 4 0 6-8 15-22 29-39 41-6 6-10 14-10 21z m86-78l-4 0c-4 41-27 71-47 94 18 23 43 53 47 94l4 0c6 0 10 4 10 10 0 7-4 11-10 11l-184 0c-6 0-10-4-10-11 0-6 4-10 10-10l4 0c4-41 27-71 47-94-18-23-43-53-47-94l-4 0c-6 0-10-4-10-10 0-7 4-11 10-11l184 0c6 0 10 4 10 11 0 6-4 10-10 10z m-160 0c5 37 29 65 45 86l0 2c5 4 5 10 0 14l0 2c-18 21-40 49-45 86l136 0c-5-37-29-65-45-86l0-2c-5-4-5-10 0-14l0-2c18-21 40-49 45-86z"/>
<glyph glyph-name="clock-3" unicode="&#87;" d="M256 399c-80 0-143-63-143-143 0-80 63-143 143-143 80 0 143 63 143 143 0 80-63 143-143 143z m0-256c-61 0-113 52-113 113 0 61 52 113 113 113 61 0 113-52 113-113 0-61-52-113-113-113z m74 117l-64 0 0 78c0 6-6 12-12 12-6 0-12-6-12-12l0-90c0-6 6-12 12-12l76 0c6 0 12 6 12 12 0 8-4 12-12 12z"/>
<glyph glyph-name="earth" unicode="&#88;" d="M184 313c-2 2-4 2-6 4 4 5 6 5 12 2 3-6 5-10 7-12-4-2-9-6-15-6 0 2 2 4 2 6l4 2-2 0c0 0-2-2-4-4 0 0-2-2-4-2-2 4 0 6 6 10z m150 15l4 2 0 2c-2 0-4-2-4-4z m65-72c0-80-63-143-143-143-80 0-143 63-143 143 0 80 63 143 143 143 80 0 143-63 143-143z m-147 115c-6-4-6-6-10-4 0 0 2 0 2-2 4 2 4 2 6 2l2 0 2 2c2 0 4 2 4 4 0 0 0 2-2 2 0 0-2 0-4 0-2 0-2 0-4 0 2-2 4-2 4-4z m-12-11c-2 0-2 0-4-2 0 0 0 0 2-2 2 2 6 0 8-2-2-4-4-4-6-8-2 0-4 0-7 0 3 0 5 0 7 0l2-4c4 8 8 6 10 4 0 0 2 2 2 4-2 0-2 2-2 4-2 2-2 2-2 4 0 0-2 0-4 2-2 0-2 0-4 0 0 0 0 2-2 0 0 2-2 0-4 0 4-2 4-2 4 0z m-9 13c2 0 2 0 5 0 0 0 0 0 0-2 0 0 0 0 2 2 0 0 0 0 0 2-7-2-7-2-7-2z m5-6c-3 2-3 2-3 2 0 0 0-2-2-2 0-2 2-2 5 0z m-3-5c0 0-2-2 0-6 0 2 0 4 0 6z m-14 7c4 0 4 0 4 0l-4 0c4-2 4-4 6-4l2 0 2 2c0 0-2 0-2-2l0 4-2 0c-4 0-6 0-6 0z m-10-11c2-4 8-4 14 2-2 0-4 2-4 2l-2 0-2 3c0 2 0 2-2 2 0-2-2-2-2-5l-2-4c2 2 2 2 0 0 4 2 2 0 0 0z m-19 13c3 2 5 2 7 4-2-2-4-2-7-4z m78-187c0 0-22 0-37 15-2 0-4 0-10-4-2 0-2 2-4 2l4 4c-6 10-6 10-10 10-8 0-8 0-10 8l-2 2c-4 4-11 6-17 10l-4 0c-4 2-6 5-8 7-6-5-6-5-18 4 0 0-5 6-9 10l-2 2c0 2 0 4 0 6 2 2 2 4 4 6-2 0-4 0-8-4-2 0-2 2-4 2 0 2-2 8 0 15 2 2 2 2 6 10 8 0 8 0 15-4 2 0 2 2 4 2l2-4c2 0 2 0 4 0-2-7 0-11 0-17 2 2 4 4 6 6l-2 4c0 3 2 5 4 9 0-2 0-2 0-4 2 2 6 2 8 4 2 0 4 0 6 0 7 8 7 8 9 8 10 4 10 4 36 12-2 0-2 0-4 2 0 2 2 2 4 4 0 0 0 0-12-2 6 4 12 4 23 4 2 0 2 0 12 9-2 0-4 0-6-3 0 3 0 3 2 5 0 2-2 2-2 4 0 2 0 2 2 4-2 2-6 2-8 0-4 8-4 8-6 8 0-2 0-2 0-4-3 0-3 0-5 0-6-6-12-12-18-19-2 5-4 15-4 17 2 0 4 2 6 2l4 2c14 8 14 8 19 6-5 4-2 6-2 6l0 2c-3-2-5-2-7-2-2 4 0 6 0 10-6-10-6-10-12-10 0 0 0 0 0 2-2 0-2 0-6 2-2 0-2-2-4-2 0 0 0 0 0 2l-2 0 0 2c-12-6-12-6-15-4 7 2 7 2 13 4l-2 0 2 2c-2 0-2 0-4 2-4 0-4 0-9 0 0 2 3 2 3 5-3 0-3 0-9 0 0 0 0 2 2 2 0 0 0 0 0 2-6-4-12-9-18-15 2 0 2 0 4-2-12-8-18-14-25-18-14-21-24-45-24-72 22-14 33-39 33-39-15-22-2-30 6-35 0-2 2-4 2-6 4-4 14-12 22-16 2-14 11-25 23-33 6-2 12-4 20-6 0 2 0 2 0 4l-4 0c4 0 4 0 8 0l-2 2c5 2 7 2 11 4l2 0 2 2c0 6 0 6-2 11 16 10 16 10 14 16 10 10 10 10 10 18z m-30 127l4-4 4 4z m-56-59l-4 2c-4 0-4-2-4-6 2 0 2 0 6-4l4 4z m-14 6c-2 4-2 4-6 2 0 2 0 4-4 4-2 0-4 0-4 0 0 0 2-4 8-4 2-4 2-4 6-2l4 0c-2-2-4-2-4 0z m121 100c0 0 2 0 4 0-2 2-2 2-4 4l2 0 0 3c-4 4-6 10-6 10-2-2-2-2-4-2l-2 2 2 0-2 2c0 0-3 0-3-2l0-2c-2 0-2 2-2 2-2 0-2 0-2 0 0 0-2 0-4 2 0 0 0-2 0-4 0 0 0 0-2 2-2-2-4-4-6-8 2 0 4 0 4 0 2-2 4-5 4-7 0-2 0-2 0-4l2-2c0-2-2-4-2-6 0-2 2-4 2-6 2 0 4-2 6-2 3 0 3 2 3 4 2 0 14 6 20 14-6-2-10 0-10 0z m16-8c-2 0-4 0-6 0-2 0-2 0-4-2 2 0 2-2 4-2 6 2 6 2 6 4z m10 21c7-6 7-9 9-13 0-4 0-4 6-10 0 0 0 0 2 0 0 2 0 2-2 4l4-4 2 0c2 4 2 4-6 14l2 0 4-6c0 0 2 0 4 0-2 2-2 2-2 2 6-12 6-12 6-16-2 0-2 0-4 2l0-2c-2 0-2 0-6 4 0-2 0-2 4-6 0 0 0-2-2-2 0-2 0-4 0-4-4 2-4 2-8 4l0 4-2-2c0-2 0-2 6-6 0-2 0-4 0-6l2-2c2 0 2 0 8-11 0 0-2-2-12-2 2-4 4-8 6-10 8 4 10 4 14 6 0 2-2 4-2 6 4 2 2 9 4 11 2 0 2 0 2 2 6-6 8-9 11-6 2-3 2-3 2-5-2 2-2 5-7 11 0 0 0 0 0-2-2 0-2 0-4 2 0 0 0 0 0 2 2 0 2 0 17-13 0 2 0 2 0 2-2 3-4 5-4 7-13 18-29 34-47 47 0 0-3 0-5 2 0-2-2-4-2-4z m9-35c-2 0-2-2-2-4l0-4c0 2 0 4 2 4z m14 14c0 0-2 2-2 6l0-2c2-2 2-4 2-4z m43-141c6 14 8 31 8 47 0 16-4 33-10 49 0 0-2 0-2-2 0-2 0-2 0-6-4 0-12 8-12 8-5-2-11-6-21-8 0 0 0 0 0-2-4-10-8-21-18-37l4-2c2-14 2-14 0-20 18-17 18-17 22-19 0 2 2 2 2 4 6 2 11 2 17 4 8 6 10 6 10-16z"/>
<glyph glyph-name="earth2" unicode="&#89;" d="M322 336l0-2-5 0 0-4 9 0 2 4-2 2-2 4-2 6-5 0-2-2 0-2 2-2z m-5-2l0 2-2 2-4 0-2-4 0-2 2 0z m-71-12l-4-3 0-2 4 0 0 5 2-3 0 3z m-111-11l0-4c2 4 2 6 4 10z m264-53c0 4 0 8 0 12-2 15-4 27-10 39 0 0 0 2-2 2-6 17-16 29-27 41 0 0-2 2-2 2-2 2-4 4-6 6-24 23-59 37-96 37-37 0-72-14-96-39-6-2-13-8-17-14-20-25-30-55-30-88 0-80 63-143 143-143 55 0 104 32 127 77 4 11 8 21 12 31 0 2 2 6 2 8 2 11 2 19 2 29 0-2 0-2 0 0z m-26 57c2-2 2-4 4-6l-4 0z m-21 25l0 6c2-2 4-4 6-8l-2-4-8 0 0 2z m-174 16l6 0 0-4-6 0z m6-6c0 0 2 0 4 0 0 0 0-2 0-2l-10 0z m197-57l-10 0-6 4-7 0 0-4-2 0-2 2-12 2 0 8-14-2-4-2-9 0-8-4 0-8-14-10 2-5 2 0 0-4-2 0 0-10 12-14 17 0 2 2 6 0 2-2 8 0-2-10 10-17-4-10 0-4 4-4 0-11 4-6 0-8 4 0c-24-29-61-49-102-49-72 0-131 59-131 131 0 18 4 35 10 51l0 2 4 6c2 2 4 7 6 9l0-2-6-7c-2-4-2-6-4-10l0-8 6-2 0-10 6-8 5 0 0 2-5 8 0 8 3 0 2-8 8-10-2-5 0-8 12-2 0 2 4 0 0-4 4 0 6-2 9-8 10 0 0-8-6-4 0-13 10-12 0-4c0 0 4 0 4 0 0 0 8-6 8-6l0-23 2 0-2-10 4-6 0-10 6-11 9-6 8 0 0 2-6 4 0 2 2 3 0 2-4 0-2 2 4 4 0 2-4 2 0 2 6 0 8 4 2 4 8 10-2 8 2 5 8 0 4 4 2 16 7 6 0 4-7 2-4 6-12 0-8 5 0 6-4 6-8 0-5 8-4 2 0-2-8 0-2 4-8 2-6-12-10 2 0 12-11 2 4 6 0 5-10-7-6 0-2 4 2 5 2 6 8 4 17 0 0-4 6-2 0 8 4 4 8 6 0 4 8 8 8 4 7 7 2 0 0-2 2 2-4 0 0 2 2 2 4 0-2-2 6 0 0 2 2 0 0-2-2-2 0-2 8-2 2 0 0 4-6 2 0 2 4 2 0 4-4 2 0 8-6-4-2 0 0 6-10 2-5-2 0-8-6-4-2-6-2 0 0 8-6 0-4 2-2 4 12 6 4 4 0-4 4 0 0 2 4 0-2 0 0 2 5 0 2 2 8 2 4-4-10-6 14 0 2 4 6 0 2 4-4 0 0 6-14 7-8 0-5-2 0-7-4 0 0 5 4 4-10 0-2-2 4 0 0-5-6 0 0-2-8 0c0 0 0 5 0 5 0 0 6 0 6 0l4 4-4 0-4-4-6 0-4 6-6 0-9-6 7 0 0-5 8 0 2-2-8 0 0 2-9 0-4 2-6 0c23 17 49 25 78 25 33 0 63-12 86-33l-2-2-6-2-2-2 0-4 4 0 2-4 6 2 0-6-10 0-4-8-6-2 0-7 2 0 0-4-7 2-6-2-2-4 2-8 4-2 11 0 2 4 6 8 4 0 4 4 0-2 10-6-4-2-4 0 2-2 2 0 4 2 0 4 2 0-2 2-6 4-2 5 6 0 2-3 4-4 0-4 4-6 3 8 4 0 0-6 4-4 6 0c2-2 2-6 2-10z m-191 41l5 2 4 0-2-4-4-2z m19-10l0-2-10 0 0 2 4 2z m4-2l0-3-2-2-2 0 0 5z m-2 0l0 4 2-2z m0-7l0-2-2-2-4 0 0 2 2 0z m-10 7l4 0-4-9-2 0 0 4z m18-7l0-2-4 0-2 2 0 2z m-4 4l4 0z m168-32c2-2 2-2 0 0z"/>
<glyph glyph-name="email" unicode="&#90;" d="M256 215l-35 31-102-86c4-4 8-6 14-6l246 0c6 0 10 2 14 6l-102 86z m137 137c-4 4-8 6-14 6l-246 0c-6 0-10-2-14-6l137-116z m-280-12l0-170 98 84z m188-86l98-84 0 170z"/>
<glyph glyph-name="erase" unicode="&#48;" d="M340 383l-37 0c0 10-8 18-18 18l-56 0c-10 0-18-8-18-18l-39 0c-10 0-18-8-18-18l204 0c0 10-8 18-18 18z m-186-254c0-10 8-18 18-18l168 0c10 0 18 8 18 18l0 217-204 0z m149 170c0 4 4 10 10 10 4 0 11-4 11-10l0-143c0-4-5-11-11-11-6 0-10 5-10 11z m-57 0c0 4 4 10 10 10 6 0 10-4 10-10l0-143c0-4-4-11-10-11-4 0-10 5-10 11z m-56 0c0 4 5 10 11 10 6 0 10-4 10-10l0-143c0-4-4-11-10-11-6 0-11 5-11 11z"/>
<glyph glyph-name="email-2" unicode="&#49;" d="M256 250l113 100c-4 2-11 4-17 4l-198 0c-4 2-11-2-15-4z m31 6l-27-23c-2-2-4-2-6-2-2 0-4 0-6 2l-27 23-86-96c4-4 10-4 19-4l198 0c6 0 13 2 19 4z m-158 84c-6-4-6-10-6-18l0-134c0-4 0-10 4-14l84 94z m170-74l84-94c2 6 4 10 4 16l0 134c0 8-2 12-6 18z"/>
<glyph glyph-name="delivery" unicode="&#50;" d="M211 186c-14 0-29-12-29-28 0-15 13-29 29-29 14 0 29 12 29 29-2 16-13 28-29 28z m0-41c-6 0-12 7-12 13 0 6 6 12 12 12 6 0 12-6 12-12 2-6-4-13-12-13z m205 62l0-29c0-6-6-12-13-12l-14 0c-2 16-16 31-35 31-16 0-32-13-35-31l-71 0c-2 16-17 31-35 31-18 0-33-13-35-31l-16 0c-6 0-12 6-12 12l0 29z m-64-21c-14 0-28-12-28-28 0-15 12-29 28-29 15 0 29 12 29 29 0 16-12 28-29 28z m0-41c-6 0-12 7-12 13 0 6 6 12 12 12 6 0 13-6 13-12 2-6-5-13-13-13z m60 91l-52 49c-4 2-8 4-12 4l-26 0 0 8c0 6-7 12-13 12l-151 0c-6 0-13-6-13-12l0-2-53-6 92-13-96-8 96-14-96-8 53-10 0-27 275 0 0 8c0 10-2 16-4 19z m-25-3l-49 0c-2 0-2 0-2 3l0 38c0 2 0 2 2 2l8 0c0 0 0 0 2 0l41-38c2-2 0-5-2-5z"/>
<glyph glyph-name="erase-2" unicode="&#51;" d="M348 365l-39 0 0 24c0 4-4 8-8 8l-90 0c-8 2-12-2-12-8l0-24-39 0c-10 0-19-9-19-19l0-33 17 0 0-180c0-10 8-18 18-18l154 0c10 0 18 8 18 18l0 180 17 0 0 33c2 10-7 19-17 19z m-131 16l74 0 0-16-74 0z m115-248c0-2 0-2 0 0l-156-2c-2 0-2 0-2 2l0 180 156 0 0-180z m16 199l-188 0 0 14c0 2 0 2 2 2l186 0c0 0 0-2 0-2z m-61-39l18 0 0-146-18 0z m-41 0l18 0 0-146-18 0z m-41 0l18 0 0-146-18 0z"/>
<glyph glyph-name="download" unicode="&#52;" d="M244 156c2-2 6-4 10-4 4 0 6 2 10 4l90 90c6 6 6 14 0 18l-12 12c-6 7-14 7-18 0l-48-47 0 181c0 8-6 12-12 12l-18 0c-8 0-13-6-13-12l0-177-47 48c-6 6-14 6-18 0l-12-13c-6-6-6-14 0-18z m131-23l-238 0c-8 0-14-6-14-10l0-21c0-8 6-12 12-12l240 0c8 0 12 6 12 12l0 21c0 6-6 10-12 10z"/>
<glyph glyph-name="exit" unicode="&#53;" d="M377 260l-45 45c-4 4-8 4-13 0-4-4-4-8 0-12l31-31-123 0c-4 0-8-4-8-8 0-4 4-8 8-8l123 0-31-31c-4-4-4-8 0-12 3-2 5-2 7-2 2 0 4 0 6 2l45 45c2 2 2 4 2 6 0 2 0 4-2 6z m-68-86c-4 0-8-4-8-8l0-41-151 0 0 258 151 0 0-41c0-4 4-8 8-8 4 0 8 4 8 8l0 51c0 4-4 8-8 8l-168 0c-4 0-8-4-8-8l0-276c0-4 4-8 8-8l168 0c4 0 8 4 8 8l0 51c0 4-4 6-8 6z"/>
<glyph glyph-name="exit-2" unicode="&#54;" d="M195 379l0-62 30 0 0 31 123 0 0-184-123 0 0 31-30 0 0-62 184 0 0 246z m45-170l47 47-47 47 0-31-107 0 0-30 107 0z"/>
<glyph glyph-name="exclamation-mark" unicode="&#55;" d="M256 174c16 0 31-14 31-31 0-16-15-30-31-30-16 0-31 14-31 30 0 19 15 31 31 31z m0 23c-14 0-25 12-25 24l0 152c0 14 13 24 25 24 14 0 25-12 25-24l0-152c0-14-11-24-25-24z"/>
<glyph glyph-name="document" unicode="&#56;" d="M307 137l-166 0 0 234 166 0 0-58 19 19 0 49c0 4-4 8-9 8l-184 0c-4 0-8-4-8-8l0-252c0-4 4-8 8-8l184 0c5 0 9 4 9 8l0 98-19-18z m-26 213l-115 0c-4 0-6-2-6-6 0-4 2-6 6-6l115 0c4 0 6 2 6 6 0 2-2 6-6 6z m6-43c0 4-2 6-6 6l-115 0c-4 0-6-2-6-6 0-4 2-6 6-6l115 0c4-2 6 2 6 6z m-17-31l-104 0c-4 0-6-2-6-6 0-4 2-6 6-6l90 0z m-37-45c0 5 3 7 5 9l-70 0c-4 0-6-2-6-7 0-4 2-6 6-6l65 0z m-67-26c-4 0-6-2-6-6 0-4 2-6 6-6l59 0c-2 4-2 8 0 14l-59 0z m217 133c-4 4-8 6-14 6-7 0-11-2-15-6l-100-100c-2-2-4-7-6-11l-8-26c0-2 0-2 0-4l2 0 26 8c4 2 6 4 11 6l100 100c4 4 6 8 6 15 4 4 2 8-2 12z"/>
<glyph glyph-name="exit-3" unicode="&#57;" d="M336 221l0 35-88 0 0 35 88 0 0 37 53-54z m-19 19l0-72-88 0 0-53-106 53 0 231 194 0 0-88-18 0 0 72-141 0 71-35 0-160 72 0 0 54 16 0z"/>
<glyph glyph-name="facebook" unicode="&#33;" d="M313 256l-37 0c0-59 0-133 0-133l-55 0c0 0 0 72 0 133l-26 0 0 47 26 0 0 31c0 22 10 55 55 55l41 0 0-45c0 0-24 0-30 0-4 0-13-2-13-12l0-27 43 0z"/>
<glyph glyph-name="eye" unicode="&#34;" d="M256 307c-12 0-27-6-35-14l25-27-37 8c-2-4-2-10-2-14 0-27 22-49 49-49 27 0 49 22 49 49 0 27-22 47-49 47z m186-43c-2 2-20 25-51 49-43 31-90 49-135 49-45 0-92-16-135-49-31-24-51-47-51-49l-9-8 9-8c2-2 20-25 51-49 43-31 90-49 135-49 45 0 92 16 135 49 31 24 51 47 51 49l9 8z m-186-82c-41 0-74 33-74 74 0 6 2 12 2 18l-16 2c-2-8-2-14-2-22 0-27 12-51 29-66-23 9-43 21-58 31-18 12-31 27-41 37 8 8 23 23 41 37 15 12 35 22 58 31l10-13c12 13 31 21 51 21 41 0 74-33 74-74 0-43-33-76-74-76z m119 39c-15-12-35-22-58-31 17 17 29 41 29 66 0 27-12 51-29 66 23-9 43-21 58-31 18-12 31-27 41-37-8-6-23-21-41-33z"/>
<glyph glyph-name="fax" unicode="&#35;" d="M317 317l-63 0c-2 0-4 2-4 5 0 2 2 4 4 4l63 0c2 0 5-2 5-4 0-5-3-5-5-5z m52 21l-9 0c-2 0-2 2-2 4 0 4-2 6-6 8l-37 31c-4 2-8 4-12 4l-59 0c-4 0-8-4-8-8l0-35c0 0 0-4-3-4l-8 0c-6 0-10-4-10-10l0-191c0-6 4-10 10-10l144 0c6 0 10 4 10 10l0 191c0 6-4 10-10 10z m-56 33c0 2 0 2 0 0l33-27c0 0 2-2 0-2l-29 0c-2 0-2 2-2 2-2 2-2 21-2 27z m-71 4c0 2 0 2 0 0l61 2c2 0 2-2 2-2l0-29c0-4 4-8 8-8l35 0c0 0 0-2 0-2l0-53c0-2-2-2-2-2l-106 0c0 0-2 0-2 2z m26-219c0-4-2-6-6-6l-20 0c-4 0-6 2-6 6l0 16c0 4 2 6 6 6l20 0c4 0 6-2 6-6z m0 37c0-5-2-7-6-7l-20 0c-4 0-6 2-6 7l0 16c0 4 2 6 6 6l20 0c4 0 6-2 6-6z m0 38c0-4-2-6-6-6l-20 0c-4 0-6 2-6 6l0 17c0 4 2 6 6 6l20 0c4 0 6-2 6-6z m43-75c0-4-2-6-6-6l-20 0c-4 0-6 2-6 6l0 16c0 4 2 6 6 6l20 0c4 0 6-2 6-6z m0 37c0-5-2-7-6-7l-20 0c-4 0-6 2-6 7l0 16c0 4 2 6 6 6l20 0c4 0 6-2 6-6z m0 38c0-4-2-6-6-6l-20 0c-4 0-6 2-6 6l0 17c0 4 2 6 6 6l20 0c4 0 6-2 6-6z m45-75c0-4-2-6-6-6l-20 0c-4 0-6 2-6 6l0 16c0 4 2 6 6 6l20 0c4 0 6-2 6-6z m0 37c0-5-2-7-6-7l-20 0c-4 0-6 2-6 7l0 16c0 4 2 6 6 6l20 0c4 0 6-2 6-6z m0 38c0-4-2-6-6-6l-20 0c-4 0-6 2-6 6l0 17c0 4 2 6 6 6l20 0c4 0 6-2 6-6z m-155-92c0-6-4-12-11-12l-49 0c-6 0-12 6-10 12 0 0 2 68 2 94 0 27-2 93-2 93 0 6 4 12 10 12l47 0c7 0 13-6 11-12 0 0-2-66-2-93 0-26 4-94 4-94z"/>
<glyph glyph-name="folder" unicode="&#36;" d="M385 297l-258 0c-14 0-14-6-14-14l12-127c0-6 2-15 16-15l230 0c14 0 14 6 16 15l12 127c0 10-2 14-14 14z m-10 33c-2 6-10 12-17 12l-96 0c-6 0-18 4-24 10l-11 10c-4 5-16 11-24 11l-45 0c-6-2-15-8-17-17l-4-37 242 0z"/>
<glyph glyph-name="global" unicode="&#37;" d="M256 123c0 0-2 0-2 0 0 0 0 0-2 0-45 2-84 24-107 59-14 23-22 47-22 74 0 35 14 70 39 94 24 25 55 37 90 39 0 0 0 0 2 0 0 0 2 0 2 0 35 0 70-14 94-39 25-24 39-59 39-94 0-27-8-51-22-74 0 0 0 0 0-2-25-35-66-57-111-57z m-4 8c0 0 2 0 2 0 8 0 14 14 20 35 2 4 2 10 5 14l-52 0c2-6 2-10 4-14 7-21 13-33 21-35z m35 49c-2-6-2-12-4-16-4-14-9-25-15-31 21 4 41 23 54 49z m-97 0c11-22 27-39 46-47-5 6-9 17-13 29-2 6-2 10-4 16z m140 0c-8-18-21-33-33-43 25 8 45 23 59 43z m-174 0c14-20 34-35 59-43-12 10-25 25-33 43z m176 8l28 0c13 19 19 41 21 64l-37 0c0-23-4-45-12-64z m-43 0l37 0c8 19 12 41 12 64l-45 0c0-23-2-45-4-64z m-64 0l54 0c4 19 6 41 6 64l-66 0c2-23 4-45 6-64z m-39 0l31 0c-4 19-4 41-6 64l-39 0c2-23 8-45 14-64z m-36 0l28 0c-8 19-12 41-12 64l-37 0c2-23 10-45 21-64z m196 72l37 0c0 23-6 43-18 62l-29 0c4-19 8-39 10-62z m-53 0l45 0c0 23-4 43-12 62l-37 0c2-19 4-39 4-62z m-72 0l66 0c0 23-2 43-4 62l-56 0c-4-19-6-39-6-62z m-47 0l39 0c0 23 2 43 4 62l-31 0c-6-19-12-39-12-62z m-43 0l37 0c0 23 4 43 12 62l-28 0c-15-19-21-39-21-62z m199 70l26 0c-4 6-8 10-12 14-14 14-31 25-47 31 8-6 16-15 22-25 5-6 9-14 11-20z m-43 0l35 0c-3 6-7 10-9 16-12 19-28 31-45 35 6-6 11-16 15-31 2-8 4-14 4-20z m-60 0l52 0c-3 6-3 12-5 16-6 21-14 35-20 35 0 0-2 0-2 0-6-2-14-14-21-35-2-4-2-10-4-16z m-37 0l29 0c2 6 2 12 4 18 4 12 8 23 13 29-15-6-27-17-37-33-2-4-6-8-9-14z m-36 0l26 0c4 6 6 14 10 20 7 10 15 19 23 25-14-6-33-17-45-31-6-4-10-8-14-14z"/>
<glyph glyph-name="google-plus" unicode="&#38;" d="M387 350l-37 0 0 35-16 0 0-35-37 0 0-18 37 0 0-37 16 0 0 37 37 0z m-129-112c-8 6-22 16-22 24 0 8 2 12 16 23 14 10 22 24 22 41 0 18-8 36-22 45l20 0 21 18c0 0-57 0-78 0-41 0-76-29-76-61 0-33 23-60 60-60 2 0 6 0 8 0-2-4-4-10-4-14 0-8 4-14 12-21-4 0-10 0-14 0-45 0-78-30-78-61 2-29 41-49 86-49 51 0 84 29 84 59-4 23-8 35-35 56z m-45 43c-20 0-41 20-45 47-2 28 12 49 33 49 20 0 39-23 43-51 4-29-11-47-31-45z m-8-146c-31 0-55 21-55 43 0 23 26 43 57 43 8 0 14-2 20-4 17-12 31-18 35-33 0-2 0-6 0-8 2-20-10-41-57-41z"/>
<glyph glyph-name="group" unicode="&#39;" d="M291 344c14-8 26-27 28-43 7-2 13-4 21-4 27 0 47 22 47 47 0 25-22 47-47 47-29 2-49-20-49-47z m-31-98c27 0 47 22 47 47 0 24-20 49-47 49-27 0-47-23-47-47 0-27 20-49 47-49z m21-2l-41 0c-35 0-62-29-62-62l0-51 4 0c33-10 62-12 84-12 45 0 72 12 72 12l2 2 0 51c4 31-25 60-59 60z m77 51l-41 0c0-14-6-31-18-41 31-8 53-37 53-70l0-14c39 2 64 12 66 12l2 2 0 52c0 30-29 59-62 59z m-182 2c8 0 19 2 27 6 2 14 10 29 22 37l0 2c0 27-22 47-47 47-24 0-51-20-51-47 0-27 20-45 49-45z m41-45c-10 10-18 24-18 41-2 0-2 0-4 0l-41 0c-35 0-62-29-62-62l0-51 4 0c27-8 51-10 70-12l0 16c-2 31 20 60 51 68z"/>
<glyph glyph-name="handshake" unicode="&#40;" d="M317 319l-2 3-55 16c-22 6-37-4-41-8-2-2-4-4-4-6l-25-58c-2-4 0-8 3-12 4-6 8-10 16-12 8-2 16 0 22 6 2 2 2 4 5 4l8 14c2 2 4 6 6 8 6 7 10 5 12 2 12-12 76-75 76-75 2-2 2-6-2-11-2-2-8-4-10-2l-19 19c-2 2-6 2-8 0-2-2-2-6 0-8l18-19c2-2 2-6-2-10-2-2-8-4-10-2l-18 18c-2 2-6 2-8 0-3-2-3-6 0-8l18-18c2-2 2-6-2-10-2-3-8-5-10-3l-19 19c-2 2-6 2-8 0-2-2-2-6 0-8l18-19c3-2 3-6-2-10-2-2-8-4-10-2l-22 23c4 4 2 12-2 16-7 6-13 6-19 2 4 4 4 12-2 18-6 7-12 7-18 2 4 5 4 13-2 19-6 6-13 6-19 2 4 4 4 12-2 18-4 4-12 6-16 2l-29 37c-2 2-6 2-8 0-2-2-2-6 0-8l35-35-10-10c-5-4-5-12 2-18 6-7 12-7 18-2-4-5-4-13 2-19 6-6 12-6 18-2-4-4-4-12 3-18 6-7 12-7 18-2-4-5-4-13 2-19 6-6 12-6 18-2l5 16 22-22c6-6 18-6 27 2 4 4 6 8 6 12 4 0 10 2 12 6 4 5 6 9 6 13 4 0 10 2 13 6 4 4 6 8 6 12 4 0 10 2 12 6 8 8 8 19 2 27l-8 8 37 37c2 2 2 6 0 8z m89-12l-50 49c-4 4-12 4-16 0l-16-16c-5-4-5-12 0-16l49-50c4-4 12-4 16 0l17 17c6 4 6 12 0 16z m-25-24c-6 0-10 4-10 10 0 6 4 10 10 10 6 0 10-4 10-10 0-6-4-10-10-10z"/>
<glyph glyph-name="handshake-2" unicode="&#41;" d="M408 315l0-86c0 0-19-4-23-4-4 0-16-4-25 4-14 13-61 60-61 60 0 0-8 8-20 2-13-6-31-17-37-19-15-8-27 4-27 15 0 6 4 12 10 16 17 10 54 31 68 39 8 4 16 6 29-6 16-12 28-25 28-25 0 0 4-4 12-2 19 0 46 6 46 6z m-191-147c2 6 2 12-2 16-4 4-10 6-14 4 2 7 0 13-4 17-4 4-11 6-15 4 2 6 0 12-4 16-6 6-16 6-24 0-7-6-13-18-7-26 7-9 15-2 19-2-2-7-6-11 0-19 6-8 14-2 18-2-2-6-6-10 0-18 6-6 15-4 21-2-2-6-8-13 0-19 6-8 20-4 28 2 7 6 9 19 3 25-5 6-13 6-19 4z m131 45c-51 51-26 27-55 55 0 0-8 8-19 4-8-4-18-8-24-12-8-4-14-6-17-6-16 0-28 12-28 29 0 10 6 18 14 24 12 8 37 23 37 23 0 0-8 10-25 10-18 0-53-25-53-25 0 0-10-6-24 0l-29 11 0-99c0 0 8-2 16-6 2 4 4 8 9 12 12 13 32 13 43 0 4-4 6-8 6-12 4-2 8-4 12-6 4-4 6-8 6-12 4-2 8-4 12-8 4-5 7-9 9-13 4-2 8-4 12-8 6-6 8-16 8-24 0 0 4-5 6-7 4-4 12-4 19 0 4 4 4 13 0 19 0 0-19 18-17 20 2 2 25-22 25-22 4-4 12-4 18 0 4 4 4 12 0 18l-2 2c0 0-22 21-20 21 2 2 28-25 28-25 4-4 13-4 17 0 4 4 4 12 0 17 0 0-21 22-19 24 2 2 23-20 23-20 4-4 12-4 18 0-2 4-2 12-6 16z"/>
<glyph glyph-name="health" unicode="&#42;" d="M276 242l-6 8-12-41c-2-4-4-6-8-6-4 0-8 4-8 8l-11 72-6-37c0-4-4-6-8-6l-94 0c18-27 49-43 72-56 10-8 22-12 30-18 29-23 31-33 31-33 0-2 2-4 4-4 2 0 4 2 4 4 0 0 2 10 31 33 8 6 18 12 31 18 22 13 51 31 69 54l-104 0c-10 0-12 2-15 4z m113 116c-14 17-37 27-61 27-39 0-62-27-72-39-8 10-31 39-72 39-26 0-47-10-61-27-17-20-25-49-21-77 2-9 7-17 11-25l98 0 14 72c0 4 4 6 8 6 5 0 9-4 9-8l12-82 8 26c2 4 4 6 8 6 4 0 6-2 9-4l10-20 112 0c5 10 9 18 11 29 0 28-6 57-23 77z"/>
<glyph glyph-name="house" unicode="&#43;" d="M408 258l-41 35 0 78c0 2 0 4-2 4-3 2-3 2-5 2l-36 0c-2 0-5 0-5-2-2-2-2-2-2-4l0-37-47 39c-4 4-8 4-14 4-6 0-10 0-14-4l-138-115c-2-2-2-4-2-4 0-2 2-2 2-4l13-14c2-3 2-3 4-3 2 0 4 3 4 3l131 110 131-110c0 0 2-3 4-3 2 0 2 0 4 3l13 14c0 2 2 2 2 4 0 0 0 2-2 4z m-152 68l-109-93 0-88c0-4 3-6 5-8 2-2 6-4 8-4l73 0 0 74 50 0 0-74 73 0c4 0 6 2 9 4 2 2 4 6 4 10l0 84z"/>
<glyph glyph-name="house-2" unicode="&#44;" d="M145 127c0 0 0-6 7-6 8 0 77 0 77 0l0 63c0 0-2 11 9 11l32 0c13 0 13-11 13-11l0-63 75 0c9 0 9 8 9 8l0 117-107 94-115-94z m-41 127c0 0 11-18 31 0l125 106 117-106c24-18 33 0 33 0l-152 137z m271 106l-31 0 0-36 31-25z"/>
<glyph glyph-name="house-3" unicode="&#45;" d="M193 342l0 41-13 0 0 18-20 0 0-18-13 0 0-41-12 0 0-238 74 0 0 238z m-41-190l-11 0 0 18 11 0z m0 30l-11 0 0 19 11 0z m0 35l-11 0 0 19 11 0z m0 33l-11 0 0 18 11 0z m0 33l-11 0 0 18 11 0z m0 30l-11 0 0 19 11 0z m16-161l-10 0 0 18 10 0z m0 30l-10 0 0 19 10 0z m0 35l-10 0 0 19 10 0z m0 33l-10 0 0 18 10 0z m0 33l-10 0 0 18 10 0z m0 30l-10 0 0 19 10 0z m0 39l-10 0 0 21 10 0z m14-200l-8 0 0 18 10 0 0-18z m0 30l-8 0 0 19 10 0 0-19z m0 35l-8 0 0 19 10 0 0-19z m0 33l-8 0 0 18 10 0 0-18z m0 33l-8 0 0 18 10 0 0-18z m0 30l-8 0 0 19 10 0 0-19z m0 39l-8 0 0 21 10 0 0-21z m17-200l-9 0 0 18 11 0 0-18z m0 30l-9 0 0 19 11 0 0-19z m0 35l-9 0 0 19 11 0 0-19z m0 33l-9 0 0 18 11 0 0-18z m0 33l-9 0 0 18 11 0 0-18z m0 30l-9 0 0 19 11 0 0-19z m129 62l0 35-62 0 0-64 49 0 0-244 62 0 0 273z m-11-15l-43 0 0 13 43 0c0 0 0-13 0-13z m0 25l-43 0 0 12 43 0c0 0 0-12 0-12z m50-240l-43 0 0 13 43 0z m0 31l-43 0 0 12 43 0z m0 31l-43 0 0 12 43 0z m0 31l-43 0 0 12 43 0z m0 30l-43 0 0 13 43 0z m0 31l-43 0 0 12 43 0z m0 31l-43 0 0 12 43 0z m-150 8l0-234 88 0 0 234z m27-213l-11 0 0 18 11 0z m0 37l-11 0 0 18 11 0z m0 35l-11 0 0 18 11 0z m0 36l-11 0 0 19 11 0z m0 35l-11 0 0 19 11 0z m0 35l-11 0 0 21 11 0z m16-178l-10 0 0 18 10 0z m0 37l-10 0 0 18 10 0z m0 35l-10 0 0 18 10 0z m0 36l-10 0 0 19 10 0z m0 35l-10 0 0 19 10 0z m0 35l-10 0 0 21 10 0z m16-178l-10 0 0 18 10 0z m0 37l-10 0 0 18 10 0z m0 35l-10 0 0 18 10 0z m0 36l-10 0 0 19 10 0z m0 35l-10 0 0 19 10 0z m0 35l-10 0 0 21 10 0z m15-178l-10 0 0 18 10 0z m0 37l-10 0 0 18 10 0z m0 35l-10 0 0 18 10 0z m0 36l-10 0 0 19 10 0z m0 35l-10 0 0 19 10 0z m0 35l-10 0 0 21 10 0z"/>
<glyph glyph-name="idea" unicode="&#46;" d="M180 362c2-4 6-4 10-4 3 0 5 0 7 2 4 5 6 11 2 17l-15 20c-4 6-12 6-16 2-6-4-6-10-2-16z m113-202l0 26c8 13 18 29 26 41 11 15 19 31 19 52 0 45-37 81-82 81-45 0-82-36-82-81 0-19 6-37 19-52 10-12 18-26 26-39l0-26 74 0z m-53-64c2-8 8-14 16-14 8 0 14 6 16 14 11 0 19 10 19 21l-70 0c0-11 8-19 19-21z m16 283c6 0 12 6 12 12l0 27c0 6-4 12-12 12-6 0-12-6-12-12l0-27c0-6 6-12 12-12z m-59-182c-4 4-13 2-17-2l-16-23c-4-4-2-12 2-16 2-2 4-2 6-2 4 0 6 2 10 4l17 22c4 6 4 13-2 17z m90-50l-62 0c-4 0-8-4-8-8 0-4 4-8 8-8l62 0c4 0 8 4 8 8 0 4-4 8-8 8z m57 252c-6 4-12 2-16-2l-17-22c-4-4-2-13 2-17 2-2 4-2 6-2 5 0 7 2 11 4l16 23c4 6 4 12-2 16z m-12-204c-4 4-10 6-17 2-4-4-6-11-2-17l17-22c2-4 6-4 10-4 2 0 4 0 6 2 4 4 6 10 2 16z m-211 116l24-8c2 0 2 0 5 0 4 0 10 4 10 8 2 6-2 13-8 15l-25 6c-6 2-12 0-14-6-2-7 2-13 8-15z m270-65l-24 8c-7 2-13-2-15-8-2-6 2-13 8-15l25-8c2 0 2 0 4 0 4 0 10 4 10 8 2 7-2 13-8 15z m-246 8l-24-8c-6-2-10-8-8-15 2-4 6-8 10-8 2 0 2 0 4 0l25 8c6 2 10 9 8 15-2 8-8 10-15 8z m217 47c3 0 3 0 5 0l24 8c6 2 10 8 8 15-2 6-8 10-14 8l-25-8c-6-2-10-9-8-15 0-4 6-8 10-8z"/>
<glyph glyph-name="location" unicode="&#47;" d="M254 395c-51 0-92-41-92-92 0-20 12-53 41-102 18-35 37-64 39-64l14-20 14 20c0 2 21 29 39 64 27 49 41 82 41 102-4 51-45 92-96 92z m0-139c-27 0-47 20-47 47 0 27 20 47 47 47 27 0 47-20 47-47 0-27-20-47-47-47z"/>
<glyph glyph-name="idea-2" unicode="&#58;" d="M190 371c3-2 5-2 7-2 0 0 2 0 2 0 2 2 4 6 2 8l-8 16c-3 2-7 4-9 2-2-2-4-6-2-8z m-47-101c0 4-2 6-6 6l-18 0c-4 0-6-2-6-6 0-4 2-6 6-6l18 0c4 0 6 4 6 6z m7-53l-17-8c-2-2-4-6-2-8 2-2 4-2 6-2 2 0 2 0 2 0l17 8c2 2 4 6 2 8-2 2-4 4-8 2z m106 168c4 0 6 2 6 6l0 17c0 4-2 6-6 6-4 0-6-2-6-6l0-19c0-2 2-4 6-4z m102-61c0 0 2 0 2 0l17 8c2 2 4 6 2 8-2 2-6 4-8 2l-17-8c-2-2-4-6-2-8 2 0 4-2 6-2z m-45 45c0 0 2 0 2 0 2 0 4 2 7 2l8 16c2 2 0 6-2 8-2 2-6 0-9-2l-8-16c-2-2-2-6 2-8z m-157-33l-17 8c-2 2-6 0-8-2-2-2 0-6 2-8l17-8c0 0 2 0 2 0 2 0 4 2 6 2 2 2 2 6-2 8z m237-60l-18 0c-4 0-6-2-6-6 0-4 2-6 6-6l18 0c4 0 6 2 6 6 0 4-2 6-6 6z m-14-69l-17 8c-2 2-6 0-8-2-2-2 0-6 2-8l17-8c0 0 2 0 2 0 2 0 4 2 6 2 0 4 0 8-2 8z m-123 160c-53 0-96-41-96-95 0-32 14-53 22-67 6-8 11-15 11-21 0-12 6-22 18-32 0-9 2-25 2-25 0-4 2-14 20-21 3-2 5-6 9-8 2-2 4-2 6-2l18 0c2 0 4 0 6 2 4 2 7 4 9 8 16 7 20 17 20 21 0 0 2 18 2 25 12 8 19 20 19 32 0 6 4 11 10 21 10 14 22 35 22 67-2 52-45 95-98 95z m53-148c-6-10-14-20-14-33 0-6-6-10-8-12l-62 0c-4 2-8 8-8 12 0 13-6 23-14 33-8 12-19 27-19 53 0 39 33 70 72 70 39 0 72-31 72-70 0-26-11-41-19-53z m-61 14c0-6 4-6 8-6 4 0 8 2 8 6l6 43c0 3 0 7 0 9l0 22c0 10-6 15-14 15-10 0-14-5-14-15l0-20c0-2 0-6 0-8z m8-18c-8 0-14-6-14-14 0-8 6-15 14-15 8 0 14 7 14 15 0 8-6 14-14 14z"/>
<glyph glyph-name="house-4" unicode="&#59;" d="M137 207l232 0 0 76-232 0z m21 35l20 0 0-21-20 0z m45-21l-21 0 0 21 21 0z m30 21l21 0 0-21-21 0z m46-21l-21 0 0 21 21 0z m24 21l21 0 0-21-21 0z m45-21l-20 0 0 21 20 0z m0 25l-20 0 0 20 20 0z m-45 20l21 0 0-20-21 0z m-24-20l-21 0 0 20 21 0z m-46 20l21 0 0-20-21 0z m-30-20l-21 0 0 20 21 0z m-45 20l20 0 0-20-20 0z m-21 21l232 0 0 75-232 0z m21 35l20 0 0-21-20 0z m45-21l-21 0 0 21 21 0z m30 21l21 0 0-21-21 0z m46-21l-21 0 0 21 21 0z m24 21l21 0 0-21-21 0z m45-21l-20 0 0 21 20 0z m0 27l-20 0 0 20 20 0z m-45 18l21 0 0-20-21 0z m-24-18l-21 0 0 20 21 0z m-46 18l21 0 0-20-21 0z m-30-18l-21 0 0 20 21 0z m-45 18l20 0 0-20-20 0z m-21-145l0-101 232 0 0 101z m41-62l-20 0 0 21 20 0z m0 27l-20 0 0 20 20 0z m25-27l-21 0 0 21 21 0z m0 27l-21 0 0 20 21 0z m51-27l-21 0 0 21 21 0z m0 27l-21 0 0 20 21 0z m25-27l-21 0 0 21 21 0z m0 27l-21 0 0 20 21 0z m24 20l45 0 0-55-45 0z m55-77l-65 0 0 8 10 0 0 6 45 0 0-8 10 0z m-235 303l266 0 0-45-266 0z"/>
<glyph glyph-name="info" unicode="&#60;" d="M256 317c-16 0-31-14-31-30l0-154c0-16 15-31 31-31 16 0 31 15 31 31l0 154c0 16-15 30-31 30z m0 93c-16 0-31-15-31-31 0-17 15-31 31-31 16 0 31 14 31 31 0 16-15 31-31 31z"/>
<glyph glyph-name="info-2" unicode="&#61;" d="M287 389c18 0 26-12 26-27 0-18-16-32-34-32-17 0-27 10-27 26 0 15 10 33 35 33z m-56-266c-14 0-24 8-14 47l16 68c3 10 5 14 0 14-4 0-22-8-32-14l-6 12c34 29 73 47 90 47 14 0 16-16 10-43l-19-72c-4-12-2-16 3-16 4 0 18 6 32 16l8-10c-36-37-73-49-88-49z"/>
<glyph glyph-name="instagram" unicode="&#62;" d="M158 391l198 0c19 0 35-14 35-35l0-198c0-21-16-35-35-35l-198 0c-19 0-35 14-35 35l0 198c0 21 16 35 35 35z m159-31c-6 0-12-6-12-12l0-29c0-6 6-12 12-12l31 0c6 0 12 6 12 12l0 31c0 6-6 12-12 12l-31 0z m41-81l-22 0c2-9 4-15 4-23 0-45-37-80-82-80-45 0-82 37-82 80 0 8 2 16 4 23l-26 0 0-113c0-6 4-10 10-10l186 0c6 0 10 4 10 10l0 113z m-102 30c-29 0-53-22-53-51 0-29 24-51 53-51 29 0 53 22 53 51 0 29-22 51-53 51z"/>
<glyph glyph-name="internet" unicode="&#63;" d="M299 322l20 0-14-80c-2-9-2-17 0-21 2-4 4-6 10-6 4 0 11 2 15 4 4 2 10 6 12 10 4 4 6 11 10 19 2 8 4 16 4 26 0 15-2 27-8 37-4 11-12 19-20 25-9 6-19 12-31 14-12 4-25 4-37 4-14 0-29-2-43-8-10-2-20-8-31-18-10-9-16-21-22-33-6-12-8-27-8-43 0-14 2-29 6-41 4-12 10-23 20-31 8-8 21-14 33-20 12-4 29-6 45-6 6 0 12 0 19 2 8 2 14 4 20 6l8-29c-8-4-16-6-24-8-9-2-19-2-29-2-18 0-37 2-53 8-17 6-31 14-41 25-13 10-21 24-27 39-6 16-10 34-10 55 0 20 4 41 12 57 8 17 19 31 31 43 12 12 29 21 45 29 16 6 33 10 51 10 19 0 35-2 49-8 15-6 29-12 41-23 10-10 21-20 27-34 6-15 10-29 10-48 0-12-2-24-6-34-4-11-10-21-18-29-9-8-17-14-27-18-10-5-21-7-33-7-4 0-10 0-14 2-4 3-8 3-10 7-2 2-5 6-7 10-2 4-2 8-2 14l-2 0c-2-4-6-8-10-12-4-4-6-8-10-10-4-2-8-6-14-6-5-3-11-3-17-3-4 0-8 3-14 3-4 2-8 4-10 8-5 4-7 8-9 14-2 6-2 10-2 18 0 13 2 25 6 35 5 13 9 21 17 31 6 8 14 16 22 20 9 7 19 9 29 9 6 0 12-2 16-4 5-2 9-5 13-9z m-18-35c-2 2-7 4-9 4-2 2-6 2-10 2-6 0-10-2-16-4-4-4-10-8-13-13-4-6-6-10-8-18-2-6-2-12-2-18 0-7 2-13 4-17 2-4 6-6 15-6 2 0 6 0 8 2 4 2 6 4 8 6 2 2 6 6 8 11 2 4 6 8 8 10z"/>
<glyph glyph-name="internet-2" unicode="&#64;" d="M313 141c-20-10-41-14-67-14-62 0-113 45-113 117 0 78 53 143 137 143 66 0 109-45 109-108 0-56-31-91-68-91-14 0-28 11-28 33l-2 0c-13-22-31-33-54-33-22 0-41 19-41 48 0 47 37 88 88 88 17 0 31-5 41-9l-12-67c-6-29-2-41 10-41 19 0 41 24 41 67 4 56-28 95-88 95-61 0-112-47-112-123 0-64 41-101 96-101 20 0 41 5 57 13z m-20 162c-4 2-10 2-19 2-32 0-59-31-59-67 0-17 8-29 25-29 22 0 41 29 45 51z"/>
<glyph glyph-name="key" unicode="&#91;" d="M309 399c-49 0-90-41-90-90 0-10 2-20 6-33l-110-110 0-53 53 0 0 32 33 0 0 33 32 0 48 47c10-4 20-6 32-6 49 0 90 41 90 90-4 49-45 90-94 90z m27-96c-19 0-33 14-33 33 0 18 14 33 33 33 18 0 33-15 33-33-2-19-15-33-33-33z"/>
<glyph glyph-name="key-2" unicode="&#93;" d="M227 184l78 78c25-8 53-4 74 17 29 28 29 73 0 100-29 29-74 29-100 0-21-21-25-49-17-74l-149-149 8-37 37-8 14 14 29 0 0 29 28 0 0 30z m109 152c-8 8-8 20 0 29 8 8 20 8 29 0 8-9 8-21 0-29-9-8-21-8-29 0z"/>
<glyph glyph-name="like" unicode="&#94;" d="M395 264c-8 21-24 33-49 33l-29 0c5 10 11 27 11 45 0 6 0 10-2 16-2 23-19 33-39 31-8 0-13-8-19-29-6-16-14-38-24-55-8-12-25-22-37-31l0 2-94 0 0-139 94 0 0 8c14 0 22 0 24 0l17-10 12-8c12-6 66-8 88-4 29 4 37 29 37 29 2 10 23 81 10 112z m-26-106c0 0-4-15-23-17-24-4-70-2-78 2 0 0-10 7-10 7l-20 12c-7 2-17 2-31 2l0 92c14 6 39 18 51 39 12 20 21 43 27 59 0 0 6 15 6 17 10 0 14-6 16-17 0-4 2-8 2-12 0-27-14-49-14-49l-8-14 59 0c16 0 27-7 31-21 10-22-2-80-8-100z"/>
<glyph glyph-name="linkedin" unicode="&#95;" d="M131 299l55 0 0-166-55 0z m27 23c-19 0-31 12-31 28 0 17 12 29 31 29 18 0 30-10 30-27 0-16-10-30-30-30z m227-189l-55 0 0 88c0 23-8 37-29 37-14 0-25-10-29-20-2-5-2-9-2-15l0-92-55 0c0 0 0 150 0 166l55 0 0-23c9 13 21 27 49 27 37 0 64-25 64-74z"/>
<glyph glyph-name="list" unicode="&#96;" d="M137 166c-10 0-20-8-20-21 0-12 10-20 20-20 10 0 21 10 21 20 0 11-11 21-21 21z m0 98c-10 0-20-8-20-20 0-11 10-21 20-21 10 0 21 8 21 21 0 10-11 20-21 20z m74 60l174 0c10 0 18 8 18 18 0 10-8 18-18 18l-174 0c-10 0-18-8-18-18 0-8 8-18 18-18z m-74 41c-10 0-20-11-20-21 0-10 10-20 20-20 10 0 21 8 21 20 0 12-11 21-21 21z m248-103l-174 0c-10 0-18-8-18-18 0-11 8-19 18-19l174 0c10 0 18 8 18 19 0 10-8 18-18 18z m0-96l-174 0c-10 0-18-8-18-19 0-10 8-18 18-18l174 0c10 0 18 8 18 18 0 9-8 19-18 19z"/>
<glyph glyph-name="list-2" unicode="&#123;" d="M117 223l33 0 0 31-33 0z m0-84l33 0 0 33-33 0z m0 166l33 0 0 35-33 0z m63-82l223 0 0 31-223 0z m0-84l223 0 0 33-223 0z m0 201l0-33 223 0 0 33z"/>
<glyph glyph-name="loading" unicode="&#124;" d="M381 270c-6 6-12 9-19 9-8 0-14-3-18-9-6-6-8-12-8-18 0-8 2-14 8-19 6-6 12-8 18-8 9 0 15 2 19 8 6 7 8 13 8 19 0 6-2 12-8 18z m-51-71c-6 0-13-2-19-6-4-5-6-11-6-17 0-6 2-12 6-18 4-4 11-6 19-6 6 0 12 2 16 6 4 4 8 10 8 18 0 6-2 12-8 17-4 4-10 6-16 6z m2 98c8 0 14 2 20 8 6 6 8 12 8 21 0 8-2 14-8 20-6 6-12 8-20 8-8 0-15-2-21-8-6-6-8-12-8-20 0-9 2-15 8-21 6-6 13-8 21-8z m-80-129c-6 0-12-2-16-6-5-4-7-10-7-17 0-6 2-12 7-16 4-4 10-6 16-6 6 0 12 2 16 6 4 4 6 10 6 16 0 7-2 13-6 17-4 4-10 6-16 6z m0 221c-8 0-16-4-23-10-6-6-10-14-10-23 0-8 2-16 10-22 7-6 15-10 23-10 8 0 16 4 22 10 7 6 11 14 11 22 0 9-4 17-11 23-6 8-14 10-22 10z m-78-78c4 0 8 2 10 4 6 7 6 15 0 21-2 4-6 6-10 6-2 0-6-2-10-6-6-6-6-14 0-21 4-2 8-4 10-4z m0-114c-6 0-10-2-14-7-4-4-6-8-6-14 0-6 2-10 6-14 4-4 8-6 14-6 6 0 10 2 14 6 5 4 7 8 7 14 0 6-2 10-7 14-4 5-8 7-14 7z m-22 67c-5 4-9 4-13 4-4 0-8-2-12-4-2-4-4-8-4-12 0-4 2-8 4-12 4-4 8-4 12-4 4 0 8 2 13 4 4 4 4 8 4 12 2 4 0 8-4 12z"/>
<glyph glyph-name="minus" unicode="&#125;" d="M365 270l-218 0c-8 0-14-8-14-14 0-8 8-14 14-14l215 0c9 0 15 8 15 14 2 8-6 14-12 14z"/>
<glyph glyph-name="menu" unicode="&#126;" d="M135 330l244 0c6 0 12 6 12 12 0 6-6 12-12 12l-244 0c-6-2-12-6-12-12 0-6 6-12 12-12z m0-86l244 0c6 0 12 6 12 12 0 6-6 12-12 12l-244 0c-6 0-12-6-12-12 0-6 6-12 12-12z m0-84l244 0c6 0 12 6 12 12 0 6-6 12-12 12l-244 0c-6 0-12-6-12-12 0-8 6-12 12-12z"/>
<glyph glyph-name="map" unicode="&#92;" d="M188 225l17-8-10-20-11 0 0-9-20-16-8-16 6-9-10 3-5 10 11 45-8 8-7 16 7 9-5 0-6 8-6 2-14 4-10 16-9 17 0 16-10 18-14 9-8-4-17-9 10 9-6 2-2 8 8 6-8 0 0 6 6 0-4 8 13 8 24-12 8 8 19-10 37 4 0-18-15-2-2-6 15-15 4 0 2 17 8 0 4-11 4 2 10-24-14-6-12-6-8-13 0-6-5 0-4 4-12-2-2-8 4-4 4 4 4 0-2-6 6 0 2-8 5-2 2 4 18-2 12-11z m228 4l-2-8-6 4 2 4-9 0-10-8-10-4 2-14 0-2 4-2 16 4 7-4 2 2 2-6 8-2 6 4 4 16-8 8z m-39 9l8-2 4 12-2 2-10-6z m26 4l9-9 4 0 2 3 6-5-2 7-12 4z m15 71l-2-12-6-12-7-4 0-4 13 8 0 8 4 4-4 2 2 6z m35-114l0-9-11-6 7 0 6 9 4 6z m-211 133l0-8 6 2 2 2-6 12-4-2 0-4-4-4 0-2 4 0z m57-109l0-10 4-2 4 12-2 4z m141 107l0-8-8-11 0 15 10 12-6 0-8-6-10 0-8-10 6-5-6-18-7 0-4-4 2-6-4-4-2 6-4 4-4-4 4-10-6-11-12 0 0-6 6-8-6-4-6 6 0-6 4-6 2-10 6-3 8-4-16 2-6 7-7 8 9-4-5 6 0 10-4 0-4 10-12-8 0-6-4-4-6 16-6 8-15 2-4 5-2-2 4-9 4 2 6-4-20-12-10 20-2 0 10-24 10 4-4-10-10-8 2-15-6-4-10-20-11-2-8 22 2 10-6 19-18-2-11 10 2 16 11 13 20 4 2-6 8-7 4 5 13-5 4 3 2 4-8 4-2 4-2 2-2-6-5 4 0 4-8 6-2 2 0-4 6-4-4-4-4 6-4 4-8-4-4-8-8 2 0 10 10 0-4 4-2 4 8 2 4 6 4 0 0 5 2 2 2-5 10 0 0 7 4-2-2 4 7 2-2 2-7-2-2 4 0 2 2 2 2 4-2 0-4-4-2-6 4-4-4-9-4-2-2 9-6-2-2 2 0 8 4 4 4 10 10 6 25-4c29 2 78 8 78 8l84-12 4-8-12-6z m-143-33l-12 8-4-6 2-4 8 2 6-2z m14-8l-2 8-2 4 4 2 0 2-8-4 2-6-2-4z m-114 63l-7 2-8-10 11-29 6-2 0 11 2 2 0 4 4 6-2 6z"/>
<glyph glyph-name="man-symbol" unicode="&#57344;" d="M340 406c-8 0-14-7-14-15 0-8 6-14 14-14l16 0-61-62c-21 17-45 27-74 27-63 0-117-51-117-117 0-59 46-108 101-114l2 0c4 0 8 0 14 0 4 0 8 0 15 0l2 0c57 8 100 55 100 114 0 25-8 49-23 68l62 61 0-12c0-8 6-14 14-14 8 0 15 6 15 14l0 64z m-119-269c-47 0-86 39-86 86 0 47 39 86 86 86 47 0 86-39 86-86 0-47-39-86-86-86z"/>
<glyph glyph-name="man-2" unicode="&#57345;" d="M406 139c-9 54-35 58-56 58-4 0-14 0-18 0-21 0-39 16-39 39l0 12c8 10 14 22 18 35 0 2 2 4 4 4 9 8 9 20 4 28 0 2-2 2-2 4 0 13 0 23 0 35 0 15-4 29-14 39-8 8-18 13-29 15-14 2-28 2-41 0-12-2-22-11-30-21-6-8-8-20-10-31 0-12 0-22 0-34 0-3-3-5-3-7-6-10-2-22 7-28 2-2 2-4 4-6 4-11 8-21 16-29 0 0 0-2 2-2l0-12c0-21-16-39-39-39-4 0-14 0-18 0-21-2-47-6-56-58-4-20 7-39 19-39l270 0c2-2 13 15 11 37z"/>
<glyph glyph-name="man" unicode="&#57346;" d="M238 172l4 18c0 3 2 5 2 7 0 0 0 0-2 0l-39 32-23-6c-39-10-67-43-67-82l0-51c0-10 8-18 18-18l98 0 15 86c-2 2-8 8-6 14z m96 51l-23 6-39-32c0 0 0 0-2 0 2-2 2-4 2-7l4-18c3-6-4-12-10-12l15-86 98 0c10 0 18 8 18 18l0 51c4 37-22 70-63 80z m-2 58c10 2 18 10 20 28 2 15-2 23-8 27 14 61-27 74-27 74 0 0-30 53-92 16-8-4-20-14-26-23-13-12-21-32-21-65-8-2-14-10-12-29 2-18 10-26 20-28 15-33 41-62 74-62 31 0 57 29 72 62z m-74-45c-37 0-68 51-68 92 0 6 0 10 0 16 54-2 86 18 105 39 16-16 24-37 29-53 0 0 0 0 0-2 2-41-27-92-66-92z"/>
<glyph glyph-name="magnifying-glass-3" unicode="&#57347;" d="M307 375c-47 47-123 47-170 0-47-47-47-123 0-170 41-41 107-47 154-15 0-4 4-8 6-12l68-67c10-11 26-11 36 0 11 10 11 26 0 36l-67 68c-4 4-8 6-12 6 32 47 28 111-15 154z m-20-150c-35-35-92-35-127 0-35 35-35 92 0 127 35 35 92 35 127 0 35-35 35-92 0-127z"/>
<glyph glyph-name="magnifying-glass-2" unicode="&#57348;" d="M332 295c0 63-51 115-115 115-63 0-115-52-115-115 0-64 52-115 115-115 64 0 115 51 115 115z m-115-86c-47 0-86 39-86 86 0 47 39 86 86 86 47 0 86-39 86-86 0-49-37-86-86-86z m184-57l-69 69c-10-16-25-31-41-41l69-69c11-11 29-11 41 0 11 12 11 30 0 41z"/>
<glyph glyph-name="magnifying-glass" unicode="&#57349;" d="M315 207c21 22 33 51 33 84 0 67-55 123-123 123-67 0-123-56-123-123 0-68 56-123 123-123 29 0 54 8 74 25l92-93c2-2 4-4 8-4 2 0 7 2 9 4 4 4 4 13 0 17z m-190 84c0 55 45 100 100 100 56 0 101-45 101-100 0-55-45-101-101-101-55 0-100 46-100 101z"/>
<glyph glyph-name="love-2" unicode="&#57350;" d="M256 127c-281 152-78 342 0 215 78 127 281-61 0-215z"/>
<glyph glyph-name="love" unicode="&#57351;" d="M256 123l-20 20c-74 66-123 111-123 166 0 45 34 80 77 80 25 0 50-12 66-31 16 19 41 31 66 31 45 0 77-35 77-78 0-55-49-98-123-166z"/>
<glyph glyph-name="location2" unicode="&#57352;" d="M250 389c-51 0-92-41-92-92 0-4 0-8 0-12 8-72 86-154 86-154 2-2 2-2 4-4l4 0c2 0 2 2 4 4 0 0 76 82 84 154 0 4 0 8 0 12 2 51-41 92-90 92z m0-149c-33 0-60 26-60 59 0 33 27 57 60 57 33 0 59-26 59-59 0-33-26-57-59-57z"/>
<glyph glyph-name="money" unicode="&#57353;" d="M256 395c-57 0-102-16-102-37l0-53c0-20 45-37 102-37 57 0 102 17 102 37l0 53c0 21-45 37-102 37z m0-65c-45 0-82 12-82 28 0 17 37 29 82 29 45 0 82-12 82-29 0-16-37-28-82-28z m0-78c-53 0-98 14-102 35 0 0 0-2 0-2l0-54c0-20 45-36 102-36 57 0 102 16 102 36l0 54c0 0 0 2 0 2-4-21-49-35-102-35z m0-76c-53 0-98 14-102 35 0 0 0-2 0-2l0-53c0-21 45-37 102-37 57 0 102 16 102 37l0 53c0 0 0 2 0 2-4-21-49-35-102-35z"/>
<glyph glyph-name="move" unicode="&#57354;" d="M416 254l-43 43c-2 2-4 4-8 4-3 0-7-2-9-4-2-2-4-4-4-8l0-23-65 0 0 66 22 0c2 0 6 2 8 4 2 2 5 4 5 8 0 2-3 6-5 8l-43 43c-2 2-4 4-8 4-2 0-6-2-8-4l-43-43c-2-2-4-4-4-8 0-2 2-6 4-8 2-2 4-4 8-4l23 0 0-66-66 0 0 23c0 2-2 6-4 8-2 2-4 4-8 4-2 0-6-2-8-4l-43-43c-2-2-4-4-4-8 0-2 2-6 4-8l43-43c2-2 4-5 8-5 2 0 6 3 8 5 2 2 4 4 4 8l0 22 66 0 0-65-23 0c-2 0-6-2-8-4-2-2-4-4-4-9 0-4 2-6 4-8l43-43c2-2 4-4 8-4 2 0 6 2 8 4l43 43c2 2 5 4 5 8 0 5-3 7-5 9-2 2-4 4-8 4l-22 0 0 65 65 0 0-22c0-2 2-6 4-8 2-2 4-5 9-5 2 0 6 3 8 5l43 43c2 2 4 4 4 8 0 2-2 6-4 8z"/>
<glyph glyph-name="music" unicode="&#57355;" d="M346 381l-108-33c-15-4-23-16-23-31l0-112c0 0-8 6-25 2-26-6-47-25-47-47 0-21 21-33 47-29 25 4 46 23 46 43l0 96c0 11 12 15 12 15l94 28c0 0 10 4 10-6l0-78c0 0-10 7-26 4-25-4-47-22-47-43 0-20 20-32 47-30 22 4 43 24 43 43l0 157c2 17-11 23-23 21z"/>
<glyph glyph-name="navigation" unicode="&#57356;" d="M256 258l0-133 131 262-262-129z"/>
<glyph glyph-name="navigation-2" unicode="&#57357;" d="M256 311c-31 0-55-24-55-55 0-31 24-55 55-55 31 0 55 24 55 55 0 31-24 55-55 55z m125-41c-8 58-53 105-111 111l0 29-28 0 0-29c-58-6-105-53-111-111l-29 0 0-28 29 0c6-60 53-105 111-111l0-29 28 0 0 29c60 6 105 53 111 111l29 0 0 28z m-125-112c-55 0-98 43-98 98 0 55 43 98 98 98 55 0 98-43 98-98 0-55-43-98-98-98z"/>
<glyph glyph-name="navigation-3" unicode="&#57358;" d="M395 270l-18 0c-6 58-49 101-107 109l0 16c0 8-6 15-14 15-8 0-14-7-14-15l0-16c-58-8-101-51-107-109l-18 0c-8 0-15-6-15-14 0-8 7-14 15-14l18 0c8-54 51-97 105-105l0-20c0-8 6-15 14-15 8 0 14 7 14 15l0 20c56 6 99 49 105 105l18 0c8 0 15 6 15 14 4 8-3 14-11 14z m-139-108c-53 0-96 43-96 96 0 53 43 96 96 96 53 0 96-43 96-96 0-53-43-96-96-96z m0 137c-23 0-41-18-41-41 0-22 18-41 41-41 23 0 41 19 41 41 0 23-18 41-41 41z"/>
<glyph glyph-name="network" unicode="&#57359;" d="M332 205c-10 0-19-4-25-10l-92 53c0 2 2 6 2 8 0 4 0 6-2 8l92 53c6-6 17-10 27-10 20 0 39 17 39 39 0 21-17 39-39 39-21 0-39-16-39-39 0-4 0-6 2-8l-92-55c-6 6-17 10-27 10-20 0-39-17-39-39 0-21 17-39 39-39 10 0 19 4 27 10l92-53c0-2-2-6-2-8 0-21 16-37 37-37 20 0 37 16 37 37 2 24-17 41-37 41z"/>
<glyph glyph-name="network-2" unicode="&#57360;" d="M221 303l-18 16c2 5 4 9 4 13 0 14-12 26-27 26-14 0-26-12-26-26 0-15 12-27 26-27 4 0 10 2 15 4l18-16c2 4 6 6 8 10z m74 2l22 39c2 0 5-2 7-2 14 0 26 12 26 27 0 14-12 26-26 26-15 0-27-12-27-26 0-7 2-15 8-19l-22-39c6-2 10-4 12-6z m80-33c-10 0-21-6-25-16l-33 4c0-4 0-8-2-12l33-4c2-13 12-23 25-23 14 0 26 12 26 27 2 12-10 24-24 24z m-88-102l-8 31c-5-2-9-2-13-2l8-31c-8-4-14-12-14-23 0-14 12-26 27-26 14 0 26 12 26 26-2 13-12 25-26 25z m-84 74l-41-15c-4 7-12 13-23 13-14 0-26-13-26-27 0-14 12-27 26-27 15 0 27 13 27 27l0 2 41 14c-2 5-4 9-4 13z m102 14c0-25-20-45-45-45-24 0-45 20-45 45 0 25 21 45 45 45 25-2 45-22 45-45z"/>
<glyph glyph-name="mobile" unicode="&#57361;" d="M311 123c0 0 25 0 25 24l0 218c-2 24-25 24-25 24l-110 0c0 0-25 0-25-24l0-218c2-24 25-24 25-24z m-55 10c-6 0-12 6-12 12 0 7 6 13 12 13 6 0 12-6 12-13 0-6-6-12-12-12z m-31 242c0 2 2 2 2 2l56 0c2 0 2-2 2-2 0-2-2-2-2-2l-56 0c0-2-2 0-2 2z m-35-17l134 0 0-192-134 0z"/>
<glyph glyph-name="pdf-2" unicode="&#57362;" d="M252 186c-4 0-6 0-6 0l0-45c2 0 4 0 6 0 14 0 22 9 22 23-2 12-10 22-22 22z m-59 0c-5 0-7 0-7 0l0-20c2 0 2 0 4 0 9 0 13 4 13 10 2 6-2 10-10 10z m165 146c0 2 0 2-2 4l-55 61c0 0 0 0-2 0 0 0 0 0-2 0 0 0 0 0-2 0l-131 0c-6 0-10-4-10-10l0-260c0-6 4-10 10-10l182 0c6 0 10 4 10 10z m-145-170c-6-4-12-6-23-6-2 0-4 0-6 0l0-25-14 0 0 66c4 0 10 2 20 2 11 0 17-2 21-6 4-5 6-9 6-17 2-8 0-10-4-14z m66-25c-7-6-19-8-31-8-8 0-15 0-17 0l0 66c7 0 13 2 21 2 12 0 20-2 27-9 6-6 12-14 12-24-2-10-6-21-12-27z m61 47l-27 0 0-14 25 0 0-12-25 0 0-27-14 0 0 68 41 0z m-176 25l0 178 129 0 0-57c0-2 2-6 6-6l49 0 0-115z m149 72c0 0-8 0-20 0-4 0-8 0-10 0-25 18-43 34-54 45 0 2 0 2 0 2 2 14 0 24-4 28-2 4-6 4-12 2-2 0-8-4-10-8-2-6 2-12 8-20 0 0 2-2 8-8-2-15-10-46-14-60-8-4-17-10-23-16 0-2-4-8-2-13 0-2 2-4 6-4 0 0 0 0 2 0 5 0 17 2 23 25l2 6c20 10 47 14 68 14 10-8 20-14 28-20 0 0 4-2 10-2 7 0 13 4 15 12 0 4 0 8-4 10-6 5-17 7-17 7z m-125-45c0 2 0 4 0 6 5 4 9 8 13 10-4-16-11-16-13-16z m29 100c-8 8-6 12-6 14 0 2 4 4 4 4 2 0 2 0 4 0 2-2 4-8 2-18-2 0-4 0-4 0z m-2-68c4 15 8 35 12 49 11-8 25-22 43-36-18-2-39-7-55-13z m109-8c-2-4-5-6-7-6-2 0-6 2-6 2-6 4-12 8-20 14 12 0 18 0 20 0 2 0 8 0 11-4 2 0 2-2 2-6z"/>
<glyph glyph-name="pdf" unicode="&#57363;" d="M197 252c0 8-7 12-17 12-4 0-6 0-8 0l0-26c2 0 4 0 6 0 10 2 19 6 19 14z m59 14c-4 0-6 0-8 0l0-57c2 0 4 0 6 0 18 0 29 8 29 31 2 18-9 26-27 26z m117 33l-6 0 0 35c0 2 0 2-2 4l-58 68c0 0 0 0-2 0 0 0 0 0-2 0 0 0 0 0-2 0l-143 0c-6 0-11-5-11-11l0-96-6 0c-8 0-18-6-18-18l0-86c0-9 6-19 18-19l6 0 0-59c0-6 5-11 11-11l194 0c6 0 10 5 10 11l0 59 7 0c8 0 18 6 18 19l0 86c4 12-2 18-14 18z m-213 96l137 0 0-59c0-2 2-6 6-6l51 0 0-29-194 0z m145-155c0-19-6-29-16-35-8-6-25-10-39-10-10 0-19 0-23 2l0 86c6 2 19 2 27 2 18 0 27-2 35-9 12-12 16-22 16-36z m-153-47l0 86c6 0 16 2 26 2 12 0 21-2 27-7 6-4 8-10 8-20 0-8-2-16-8-21-6-6-19-8-29-8-2 0-4 0-6 0l0-30-18 0z m204-70l-196 0 0 57 194 0 0-57z m17 141l-33 0 0-20 31 0 0-17-31 0 0-34-21 0 0 88 54 0z"/>
<glyph glyph-name="paper" unicode="&#57364;" d="M369 342l0 37-265 0 0-209c0 0 0-37 37-37l236 0c0 0 29 0 29 37l0 172z m-226-190c-20 0-20 18-20 18l0 190 227 0 0-188c0-8 2-14 6-18l-213 0z m0 170l189 0 0-19-189 0z m103-113l65 0 0-19-65 0z m0 37l86 0 0-19-86 0z m0 39l86 0 0-19-86 0z m-103 0l86 0 0-95-86 0z"/>
<glyph glyph-name="options-2" unicode="&#57365;" d="M272 340l0 33c0 8-8 16-16 16-8 0-16-8-16-16l0-33c-15 0-25-10-25-25l0-8c0-14 10-24 25-24l0-144c0-8 8-16 16-16 8 0 16 8 16 16l0 144c15 0 25 10 25 24l0 8c0 15-12 25-25 25z m103-78l0 111c0 8-6 16-17 16-8 0-16-8-16-16l0-111c-14 0-25-10-25-24l0-9c0-14 11-24 25-24l0-66c0-8 8-16 16-16 9 0 17 8 17 16l0 66c14 0 24 10 24 24l0 9c0 14-10 24-24 24z m-205 33l0 78c0 8-8 16-16 16-9 0-17-8-17-16l0-78c-14 0-24-10-24-25l0-8c0-14 10-24 24-24l0-97c0-10 6-18 17-18 10 0 16 8 16 16l0 97c14 0 25 10 25 24l0 8c0 15-13 27-25 27z"/>
<glyph glyph-name="options" unicode="&#57366;" d="M176 289l0 73c0 11-8 17-16 17-8 0-17-6-17-17l0-73c-12-4-20-15-20-29 0-12 8-24 20-29l0-84c0-10 9-16 17-16 10 0 16 8 16 16l0 84c12 5 21 15 21 29 0 14-9 25-21 29z m-8-41l-14 0c-9 0-15 6-15 14 0 8 6 14 15 14l14 0c8 0 14-6 14-14-2-8-8-14-14-14z m104 69l0 45c0 11-8 17-16 17-10 0-16-8-16-17l0-45c-13-4-21-14-21-28 0-13 8-25 21-29l0-113c0-10 8-16 16-16 10 0 16 8 16 16l0 113c13 4 21 14 21 29 0 14-8 24-21 28z m-8-41l-14 0c-8 0-14 7-14 15 0 8 6 14 14 14l14 0c8 0 15-6 15-14-3-8-9-15-15-15z m105-16l0 102c0 11-9 17-17 17-10 0-16-8-16-17l0-102c-12-4-21-14-21-29 0-12 9-24 21-28l0-56c0-10 8-16 16-16 10 0 17 8 17 16l0 56c12 4 20 14 20 28 0 15-8 25-20 29z m-11-43l-14 0c-8 0-14 6-14 14 0 9 6 15 14 15l14 0c9 0 15-6 15-15 0-6-6-14-15-14z"/>
<glyph glyph-name="pencil" unicode="&#57367;" d="M285 340c-9 8-21 8-27 0l-6-6-96-96-2-2c0 0-11-11-31-80 0 0 0 0 0-2 0-2 0-2-2-4 0-3 0-3-2-5 0 0 0-2 0-2 0-2-2-4-2-6-2-6-6-16-2-20 4-4 16 0 20 2 2 0 4 2 6 2 2 0 2 0 4 0 2 0 2 0 5 0 2 0 2 0 4 2 0 0 0 0 2 0 65 20 77 31 80 31l2 4 102 102c8 8 8 21 0 27z m-62-176c-2 0-2 0 0 0-4-2-14-8-37-17-2 0-6-2-8-2l-33 33c2 2 2 6 2 8 9 23 13 33 15 35l6 4 57-57z m170 176l-55 55c-8 8-21 8-27 0l-14-14c-8-8-8-21 0-27l55-55c8-8 21-8 27 0l14 14c8 6 8 19 0 27z"/>
<glyph glyph-name="percent" unicode="&#57368;" d="M238 287c10 12 16 26 16 43 0 30-23 63-66 63-20 0-36-6-49-20-10-11-16-25-16-43 0-31 22-64 65-64 21 0 37 8 50 21z m-50 78c25 0 35-19 35-35 0-8-2-17-8-23-6-6-14-10-27-10-24 0-34 18-34 35 0 16 10 33 34 33z m158 6c-4 0-10-2-12-6l-195-218c-2-2 0-6 4-6l25 0c4 0 10 2 12 6l193 218c2 2 2 8-4 8z m-22-129c-21 0-37-6-50-21-10-12-16-26-16-43 0-31 23-63 64-63 20 0 36 6 49 20 10 12 16 27 16 43 2 33-20 64-63 64z m2-97c-25 0-35 19-35 35 0 8 2 17 8 23 6 6 14 10 25 10 24 0 34-18 34-35 0-8-2-16-8-22-6-6-14-11-24-11z"/>
<glyph glyph-name="pencil-2" unicode="&#57369;" d="M291 350l57-57-147-148-58 58z m102 15l-26 26c-11 10-27 10-37 0l-25-24 57-58 29 29c10 6 10 18 2 27z m-280-244c-2-4 4-8 8-8l65 16-57 57z"/>
<glyph glyph-name="phone-2" unicode="&#57370;" d="M381 182c0-14-29-37-39-45-18-16-53-2-74 8-43 21-80 56-106 95-15 20-41 71-27 98 6 12 27 31 37 39 21 12 31-27 39-39 2-6 10-14 10-21 2-14-12-14-16-24-4-12 12-31 20-39 13-14 29-31 45-41 13-6 17-8 25 0 10 8 14 16 29 10 12-4 22-12 34-18 11-4 23-10 23-23z"/>
<glyph glyph-name="phone-calling" unicode="&#57371;" d="M225 225c25-24 51-47 62-35 16 17 24 29 59 3 35-27 8-46-6-62-16-18-82-2-147 64-64 63-82 129-64 145 14 14 33 41 61 8 29-35 15-43-2-59-10-13 13-41 37-64z m35 113c0 0-8 2-12-4-6-6-6-15 0-21 4-4 8-4 8-4 8-2 23-4 37-18 14-15 16-29 18-37 0 0 0-4 4-8 7-6 15-6 21 0 4 4 4 12 4 12-2 18-12 37-27 51-16 17-37 25-53 29z m68-10c26-27 37-56 32-80 0 0-2-8 5-12 6-7 14-7 20 0 4 4 4 8 4 8 2 20 0 63-41 102-41 41-82 45-102 41 0 0-6 0-8-4-7-6-7-14 0-21 4-4 12-4 12-4 20 7 51-6 78-30z"/>
<glyph glyph-name="picture" unicode="&#57372;" d="M123 383l0-256 266 0 0 256z m39-182l35 41 26-41z m100 0l45 98 51-98z m107 20l-54 103c0 4-4 6-8 6-4 0-6-2-8-6l-55-119-39 57c-2 2-4 4-6 4-2 0-6-2-9-4l-47-55 0 155 226 0z m-174 72c12 0 20 8 20 20 0 13-8 21-20 21-13 0-21-8-21-21 0-12 10-20 21-20z"/>
<glyph glyph-name="picture-2" unicode="&#57373;" d="M373 360l-234 0c-8 0-16-8-16-18l0-174c0-10 8-16 16-16l232 0c10 0 16 8 16 16l0 174c2 10-6 18-14 18z m0-18l0-123-33 31c-4 4-12 4-18 0l-35-35-66 80c-4 6-14 6-18 0l-62-72 0 119z m-72-43c0 12 10 23 23 23 12 0 22-11 22-23 0-12-10-23-22-23-13-2-23 9-23 23z"/>
<glyph glyph-name="picture-3" unicode="&#57374;" d="M393 365c-4 4-10 6-16 6l-240 0c-8 0-12-2-18-6-4-7-6-11-6-19l0-182c0-6 2-12 6-17 4-4 10-6 16-6l240 0c6 0 12 2 16 6 4 5 6 11 6 17l0 182c2 8 0 12-4 19z m-12-199c0-2 0-2-2-4 0 0-2-2-4-2l-238 0c-2 0-2 0-4 2 0 0-2 2-2 4l0 180c0 2 0 2 2 4 0 0 2 2 4 2l240 0c2 0 2 0 4-2 0 0 2-2 2-4l0-180z m-201 108c8 0 15 2 21 9 6 6 8 12 8 20 0 8-2 14-8 21-6 6-13 8-21 8-8 0-14-2-20-8-6-7-8-13-8-21 0-8 2-14 8-20 4-4 12-9 20-9z m43-43l-24 25-47-47 0-29 210 0 0 66-61 61z"/>
<glyph glyph-name="pinterest" unicode="&#57375;" d="M276 197c-16 0-32 8-36 18 0 0-9-35-11-43-6-25-26-47-26-49-2-2-4 0-4 0 0 4-6 33 0 57 2 13 20 84 20 84 0 0-4 10-4 25 0 22 12 39 29 39 14 0 20-11 20-23 0-14-8-35-14-55-4-17 8-29 24-29 29 0 50 37 50 82 0 33-23 59-64 59-47 0-76-34-76-73 0-15 4-23 11-31 2-4 4-4 2-8 0-2-2-10-4-12 0-5-5-7-9-5-20 9-30 33-30 60 0 43 36 96 108 96 60 0 96-43 96-88 0-59-32-104-82-104z"/>
<glyph glyph-name="plane" unicode="&#57376;" d="M410 256c0 12-11 23-23 23l-84 0-78 122-30 0 38-122-86 0-22 30-23 0 17-53-17-53 23 0 22 30 84 0-38-122 32 0 78 122 84 0c12 0 23 11 23 23z"/>
<glyph glyph-name="plus" unicode="&#57377;" d="M365 270l-93 0 0 95c0 8-8 14-14 14-6 0-14-8-14-14l0-93-97 0c-8 0-14-8-14-14 0-8 8-14 14-14l93 0 0-92c0-9 8-15 14-15 6 0 14 8 14 15l0 92 92 0c9 0 15 8 15 14 4 6-4 12-10 12z"/>
<glyph glyph-name="portfolio" unicode="&#57378;" d="M362 336l-14 0 0-201 14 0c15 0 27 12 27 27l0 147c0 15-12 27-27 27z m-239-27l0-145c0-14 12-27 27-27l12 0 0 199-12 0c-15 0-27-12-27-27z m178 56c-10 4-25 12-45 12-20 0-37-8-45-12l0-29-29 0 0-201 150 0 0 201-29 0 0 29z m-16-29l-60 0 0 16c6 2 17 6 29 6 12 0 22-2 29-6z"/>
<glyph glyph-name="portfolio-2" unicode="&#57379;" d="M281 379l-48 0c0 0-14 0-14-17l0-22-92 0c0 0-14 0-14-14l0-52 116 0 0 7c0 4 4 6 7 6l38 0c5 0 7-4 7-6l0-7 116 0 0 52c0 14-14 14-14 14l-90 0 0 22c2 17-12 17-12 17z m2-39l-54 0 0 27 54 0z m-170-193c0-14 14-14 14-14l258 0c0 0 14 0 14 14l0 117-116 0 0-18c0-4-4-6-7-6l-38 0c-5 0-7 4-7 6l0 18-118 0z m131 129l26 0 0-26-26 0z"/>
<glyph glyph-name="refresh-2" unicode="&#57380;" d="M358 250l-41 41 25 0 0 2c-14 37-49 61-92 61-55 0-98-45-98-98 0-55 45-98 98-98 41 0 74 22 90 55l39 0c0 0-31-92-131-92-74 0-135 61-135 135 0 74 61 135 135 135 61 0 114-43 131-100l0-2 20 0z"/>
<glyph glyph-name="refresh" unicode="&#57381;" d="M272 264c2 6 7 12 9 19 2 6 0 14-7 16-32 23-145 86-157-57 0-6-2-6-2 0-2 20-4 69 24 94 4 4 13 10 19 14 18 12 63 33 131-2 6-2 10 0 12 6l4 23c2 6 4 6 8 2l54-90c4-6 0-10-7-13l-84-18c-4-4-6 0-4 6z m84-112c-18-13-63-33-131 2-6 2-12 0-14-4l-6-17c-2-6-6-6-8 0l-43 82c-2 6 0 12 6 12l71 23c7 2 11-2 9-8-2-6-4-15-7-23-2-6 3-14 7-16 32-21 145-82 157 57 0 6 2 6 2 0 2-22 2-70-26-96-2-2-11-8-17-12z"/>
<glyph glyph-name="recycling" unicode="&#57382;" d="M115 305l18-14-16-33c-8-14 6-29 14-35 8-4 23-6 37-6l25 39 18-10-31 57z m2-80l39-71c8-9 22-13 37-11l40 0 0 68-77 0c-11-2-27 2-39 14z m241 131l-20-8-21 31c-8 14-28 8-36 4-9-6-17-18-23-29l23-39-17-10 66 0z m-69 37l-82 0c-12-2-21-12-29-26l-20-35 59-33 37 68c8 10 16 22 35 26z m4-274l2 22 37 2c16 0 22 21 20 31 0 10-8 23-14 33l-45 0-2 20-33-57z m65 43l41 69c4 13-2 25-10 39l-22 35-58-35 41-65c6-10 12-25 8-43z"/>
<glyph glyph-name="quotes" unicode="&#57383;" d="M199 246c6 0 12 2 16 2-12-70-65-115-16-78 55 41 53 127 53 127 0 29-25 53-53 53-31 4-56-20-56-51 0-29 25-53 56-53z m129 0c6 0 12 2 16 2-12-70-65-115-16-78 55 41 53 127 53 127 0 29-25 53-53 53-29 0-54-24-54-53 0-27 23-51 54-51z"/>
<glyph glyph-name="question" unicode="&#57384;" d="M252 395c49 0 96-22 96-76 0-49-55-67-67-86-9-12-7-32-31-32-17 0-25 12-25 24 0 45 66 56 66 92 0 21-15 33-37 33-49 0-29-49-66-49-12 2-24 10-24 25 0 36 43 69 88 69z m-2-217c16 0 31-14 31-31 0-16-15-30-31-30-17 0-31 14-31 30 0 17 14 31 31 31z"/>
<glyph glyph-name="protection-2" unicode="&#57385;" d="M369 178l-113-69-113 69 0 225c0 0 41-38 113-38 70 0 113 38 113 38z"/>
<glyph glyph-name="protection" unicode="&#57386;" d="M256 119c-2 0-133 24-133 157 0 39 12 76 35 107l2 2 2-2c12-4 24-8 39-8 18 0 37 6 53 16l2 2 2-2c16-10 35-16 53-16 13 0 27 2 39 8l2 2 2-2c23-29 35-66 35-107 0-126-131-157-133-157z"/>
<glyph glyph-name="prize-2" unicode="&#57387;" d="M154 195l-31-86 55 18 31-49 31 88-31 24z m206 0l-57-2-31-25 31-88 31 49 55-18z m-12 20l2 53 33 39-33 39-2 51-53 2-39 33-39-33-53-2-2-53-33-39 33-39 2-51 53-2 39-33 39 33z m-92 18c-39 0-72 33-72 72 0 39 33 72 72 72 39 0 72-33 72-72 0-39-31-72-72-72z m-23 101l3-15 18 9 0-64 18 0 0 80-16 0z"/>
<glyph glyph-name="prize" unicode="&#57388;" d="M186 213c-12 0-14 6-14 6l-49-98 41 6 20-33 45 94c-24 0-12 25-43 25z m152 2c-35-4-29-12-37-18-8-11-20-9-20-9l57-94 14 35 39-6z m-70 109l-14 28-14-28-31-7 22-20-6-31 29 15 29-15-7 31 23 20z m27-117c6 10 16 16 29 16 12 0 18 6 18 19 0 12 6 20 16 26 11 6 13 15 7 25-7 10-7 20 0 31 6 10 4 20-7 24-10 6-16 17-16 29 0 12-6 18-18 18-13 0-21 6-29 17-6 10-14 12-25 6-10-6-20-6-30 0-11 6-19 4-25-6-6-11-16-17-27-17-12 0-18-6-18-18 0-12-6-21-16-29-11-6-13-14-7-24 7-11 7-21 0-31-6-10-4-19 7-25 10-6 16-16 16-26 0-13 6-19 18-19 13 0 21-6 27-16 6-10 14-12 25-6 10 6 20 6 30 0 11-6 21-4 25 6z m-39 37c-37 0-66 30-66 65 0 37 31 66 66 66 37 0 66-31 66-66 0-37-29-65-66-65z"/>
<glyph glyph-name="printer-2" unicode="&#57389;" d="M207 188l84 0 0-16-84 0z m-19 185l134 0 0-33 16 0 0 33c0 8-8 16-16 16l-134 0c-8 0-16-8-16-16l0-33 16 0z m19-150l100 0 0-16-100 0z m166 99l-234 0c-8 0-16-7-16-15l0-100c0-8 8-17 16-17l33 0 0-49c0-8 8-16 16-16l134 0c8 0 16 8 16 16l0 49 33 0c8 0 16 9 16 17l0 100c2 8-6 15-14 15z m-51-185l-134 0 0 101 134 0z m34 133c-8 0-16 9-16 17 0 8 8 16 16 16 9 0 17-8 17-16 0-6-8-17-17-17z"/>
<glyph glyph-name="printer" unicode="&#57390;" d="M186 176l0-53 142 0 0 88-142 0z m19 19l106 0 0-19-106 0z m0-37l106 0 0-19-106 0z m125 178l0 53-144 0 0-88 142 0z m35 0l-19 0 0-53-180 0 0 53-19 0c-18 0-34-19-34-35l0-88c0-18 18-35 34-35l19 0 0 53 178 0 0-53 18 0c19 0 35 19 35 35l0 88c2 16-16 35-32 35z"/>
<glyph glyph-name="power-2" unicode="&#57391;" d="M311 379c-6 2-14 0-16-6-2-6 0-15 6-17 45-18 72-61 72-110 0-66-54-119-119-119-66 0-119 53-119 119 0 47 29 90 72 108 6 2 8 11 6 17 0 8-8 10-14 8-52-23-86-76-86-133 0-80 63-144 143-144 80 0 143 64 143 144 0 59-34 110-88 133z m-55-86c6 0 12 6 12 12l0 92c0 6-6 13-12 13-6 0-12-7-12-13l0-90c0-8 6-14 12-14z"/>
<glyph glyph-name="power" unicode="&#57392;" d="M301 358l0-45c27-16 45-45 45-80 0-51-41-92-92-92-51 0-92 41-92 92 0 35 18 66 47 80l0 45c-49-18-86-67-86-125 0-73 59-133 133-133 74 0 133 60 133 133 0 58-37 105-88 125z m-61-100c0-8 6-12 14-12l4 0c8 0 16 4 16 12l0 137c0 8-6 17-16 17l-4 0c-8 0-14-9-14-17z"/>
<glyph glyph-name="refresh-3" unicode="&#57393;" d="M156 276c8 0 16 5 18 13 14 33 45 55 82 55 20 0 39-6 53-18l-12-2c-4 0-6-5-8-9 0-4 2-8 6-10l65-29c2-2 7-2 9 0 2 3 4 5 4 9l0 71c0 4-2 9-6 9-5 2-9 0-11-5l-8-14c-24 23-57 37-92 37-55 0-100-33-121-80-2-6-2-14 2-20 4-2 13-7 19-7z m221-51c-4 6-10 11-19 11-8 0-16-5-18-13-14-33-45-55-82-55-20 0-39 6-53 18l12 2c4 0 6 5 8 9 0 4-2 8-6 10l-65 29c-2 2-7 2-9 0-2-3-4-5-4-9l0-71c0-4 2-9 6-9 5-2 9 0 11 5l8 14c24-23 57-37 92-37 55 0 100 33 121 80 2 2 2 10-2 16z"/>
<glyph glyph-name="resize" unicode="&#57394;" d="M399 379l0-100-37 36-55-55-28 29 55 55-37 37z m-202-37l55-55-29-29-55 55-37-37 0 103 100 0z m165-166l37 37 0-100-100 0 37 37-55 55 28 28z m-110 27l-55-56 36-36-100 0 0 100 37-37 55 55z"/>
<glyph glyph-name="responsive" unicode="&#57395;" d="M379 399l-197 0c-10 0-20-8-20-20l0-23 217 0 0-176-33 0 0-20 33 0c10 0 20 8 20 20l0 199c0 10-8 20-20 20z m-74-32c-6 0-10 4-10 10 0 2 2 4 2 6 2 2 4 4 8 4 4 0 6-2 8-4 2-2 2-4 2-6 0-4-4-10-10-10z m29 0c-6 0-10 4-10 10 0 2 2 4 2 6 2 2 4 4 8 4 4 0 6-2 8-4 2-2 2-4 2-6 2-4-4-10-10-10z m31 0c-7 0-11 4-11 10 0 2 2 4 2 6 2 2 4 4 9 4 4 0 6-2 8-4 2-2 2-4 2-6 0-4-4-10-10-10z m-136-240l0 23-98 0 0 161c0 4 4 8 8 8l113 0c4 0 8-4 8-8l0-35 21 0 0 35c0 15-13 27-27 27l-115 0c-14 0-26-12-26-27l0-170c0-14 12-26 26-26l94 0c-2 2-4 6-4 12z m-32-6c-4 0-7 2-9 4-2 2-2 4-2 6 0 6 4 10 11 10 6 0 10-4 10-10 0-2-2-4-2-6-2-2-4-4-8-4z m122 141l-63 0c-8 0-14-6-14-14l0-121c0-8 6-14 14-14l63 0c9 0 15 6 15 14l0 121c0 8-6 14-15 14z m-63-14l63 0 0-107-63 0z m25-121c0 4 4 6 6 6 4 0 6-4 6-6 0-4-4-6-6-6-2 0-6 2-6 6z"/>
<glyph glyph-name="repair" unicode="&#57396;" d="M344 381l-74-74 37-37 74 74c10 10 10 27 0 37-10 10-27 10-37 0z m-49-123l-43 43c-2 2-4 6-2 10 2 6 2 15 2 21 0 8-2 16-6 22-4 6-8 13-15 19-6 6-12 10-20 12-10 2-21 4-31 2-6 0-8-8-4-10l25-25c10-10 10-26 0-37-4-6-11-8-17-8-6 0-14 2-18 8l-27 25c0 0-2 2-4 2-2 0-6-2-6-6 0-2 0-6 0-8 0-31 25-60 55-62 2 0 4 0 6 0 7 0 11 0 15 2 4 0 8 0 10-2l16-16 109-109c6-6 12-8 18-8 7 0 15 2 19 8 10 11 10 27 0 37z m-107-96l0 6c0 2 0 6 2 8l25 25c0 0 2 0 2 0 6-6 14-6 19 0l8 8-35 37-8-8c-6-7-6-15 0-19 0 0 0-2 0-2l-25-24c-2-3-4-3-8-3l-6 0c-2 0-4 0-6-2l-33-38c0-7 0-9 2-13l6-6 6-6c4-2 6-2 10 0l39 33c2 0 2 2 2 4z"/>
<glyph glyph-name="rss" unicode="&#57397;" d="M199 166c0-18-15-33-33-33-18 0-33 15-33 33 0 18 15 33 33 33 18 0 33-15 33-33z m49-33c0 31-12 60-33 82-22 23-51 35-82 35l0 47c90 0 162-74 162-164z m84 0c0 111-88 199-199 199l0 47c135 0 246-111 246-246z"/>
<glyph glyph-name="security" unicode="&#57398;" d="M350 285l-14 0 0 34c0 46-37 80-80 80-45 0-80-37-80-80l0-34-14 0c-4 0-8-4-8-9l0-155c0-4 4-8 8-8l188 0c4 0 8 4 8 8l0 155c0 5-2 9-8 9z m-80-95l0-32c0-2-2-6-6-6l-14 0c-2 0-6 2-6 6l0 32c-6 5-11 11-11 19 0 12 11 22 23 22 12 0 23-10 23-22 0-8-5-14-9-19z m29 95l-84 0 0 34c0 23 18 41 41 41 23 0 41-18 41-41l0-34z"/>
<glyph glyph-name="security-2" unicode="&#57399;" d="M350 285l-135 0 0 34c0 23 18 41 41 41 23 0 41-18 41-41l0-2 39 0 0 2c0 46-37 80-80 80-45 0-80-37-80-80l0-34-14 0c-4 0-8-4-8-9l0-155c0-4 4-8 8-8l188 0c4 0 8 4 8 8l0 155c0 5-2 9-8 9z m-80-95l0-32c0-2-2-6-6-6l-14 0c-2 0-6 2-6 6l0 32c-6 5-11 11-11 19 0 12 11 22 23 22 12 0 23-10 23-22 0-8-5-14-9-19z"/>
<glyph glyph-name="settings" unicode="&#57400;" d="M379 268c0 4-4 6-8 6-11 0-21 7-25 17-4 10-2 22 6 31 2 2 2 6 0 10-6 8-12 14-20 20-2 2-6 2-10 0-9-8-21-10-31-6-10 4-17 14-17 27 0 4-2 6-6 8-8 2-18 2-26 0-4 0-6-4-6-6 0-13-7-23-17-27-10-4-22-2-31 6-2 2-6 2-10 0-8-6-14-12-20-20-2-2-2-6 0-10 8-9 12-21 6-31-4-10-14-17-27-17-4 0-6-2-6-6-2-10-2-18 0-28 0-4 4-6 8-6 11 0 21-7 25-17 4-10 2-22-6-31-2-2-2-6 0-10 6-8 12-14 18-20 2-2 6-2 10 0 9 8 21 10 31 6 10-4 16-14 16-27 0-4 3-6 7-8 4 0 10 0 14 0 4 0 8 0 14 0 4 0 6 4 6 6 0 12 7 23 17 27 10 4 22 2 31-6 2-2 6-2 10 0 8 6 14 12 20 20 2 2 2 6 0 10-8 9-12 21-6 31 4 10 14 16 25 16l2 0c4 0 6 3 8 7-2 10-2 18-2 28z m-123-55c-23 0-41 18-41 41 0 22 18 41 41 41 23 0 41-19 41-41 0-23-18-41-41-41z"/>
<glyph glyph-name="settings-2" unicode="&#57401;" d="M289 197c0 2 0 2-2 4-6 8-11 14-15 18 2 4 4 8 7 12l24 5c0 0 2 0 2 2 0 2 2 2 2 4l0 30c0 2 0 2-2 4l-2 3-24 4c-3 4-3 8-7 12 2 2 4 6 9 10 4 4 6 6 6 8 0 2 2 2 2 2 0 2-8 13-23 27-2 0-2 2-4 2-2 0-2 0-4-2l-18-14c-4 2-9 4-13 4l-4 24c0 2 0 2-2 2 0 0-2 2-4 2l-31 0c-2 2-4 0-4-2-2-4-2-12-4-24-4-2-8-4-12-6l-19 14c-2 0-2 2-4 2-2 0-6-4-12-10-6-6-10-10-12-15 0 0-2-2-2-4 0 0 0-2 2-4 6-8 10-14 14-18-2-4-4-8-6-12l-25-5c0 0-2 0-2-2 0-2-2-2-2-4l0-30c0-2 0-2 2-4l2-3 25-4c2-4 4-8 6-12-2-2-4-6-8-10-4-4-6-6-6-8 0-2-2-2-2-2 0-2 8-13 22-27 2 0 2-2 4-2 2 0 2 0 4 2l19 14c4-2 8-4 12-4l4-24c0-2 0-2 2-2 0 0 2-2 4-2l31 0c2 0 4 2 4 4 2 4 2 14 4 24 4 2 9 2 13 4l18-14c2 0 2-2 4-2 2 0 6 4 12 10 7 6 11 10 13 15 2 4 2 4 2 4z m-56 30c-8-8-18-12-28-12-12 0-21 4-29 12-8 6-12 17-12 27 0 12 4 20 12 29 8 8 19 12 29 12 12 0 20-4 28-12 9-9 13-19 13-29 0-12-4-21-13-27z m154-39c-2 5-2 7-4 9 6 12 8 20 8 22 0 0 0 0 0 2-12 8-20 12-20 12-4-4-11-10-15-18-2 0-4 0-4 0-2 0-2 0-4 0-2 2-4 6-8 10-4 4-6 8-8 8 0 0-2 0-4-2-2-2-6-4-11-6-4-2-6-2-6-4 0 0 0 0 0-2 0-2 2-10 8-22-2-2-4-7-4-9-16-2-24-4-24-4l0-22c0-2 8-4 24-4 2-2 2-6 4-8-6-13-8-21-8-23 0 0 0 0 0-2 13-8 21-12 21-12 0 0 4 2 8 8 4 4 6 8 8 10 2 0 4 0 4 0 2 0 2 0 4 0 2-2 4-6 9-10 4-4 6-8 8-8 0 0 6 4 20 12 0 0 0 0 0 2 0 2-2 10-8 23 2 2 4 6 4 8 17 2 25 4 25 4l0 20c-4 4-13 4-27 6z m-25-30c-4-4-8-6-14-6-6 0-10 2-14 6-4 4-6 8-6 14 0 6 2 10 6 14 4 4 8 7 14 7 6 0 10-3 14-7 5-4 7-8 7-14 0-6-2-10-7-14z m25 194c-2 4-2 6-4 8 6 13 8 21 8 23 0 0 0 0 0 2-12 8-20 12-20 12-4-4-11-10-15-18-2 0-4 0-4 0-2 0-2 0-4 0-2 2-4 6-8 10-4 4-6 8-8 8 0 0-2 0-4-2-2-2-6-4-11-6-4-2-6-2-6-4 0 0 0 0 0-2 0-2 2-10 8-23-2-2-4-6-4-8-16-2-24-4-24-4l0-22c0-2 8-4 24-4 2-3 2-7 4-9-6-12-8-20-8-22 0 0 0 0 0-2 13-8 21-13 21-13 0 0 4 3 8 9 4 4 6 8 8 10 2 0 4 0 4 0 2 0 2 0 4 0 2-2 4-6 9-10 4-4 6-9 8-9 0 0 6 5 20 13 0 0 0 0 0 2 0 2-2 10-8 22 2 4 4 9 4 9 17 2 25 4 25 4l0 24c-4 0-13 0-27 2z m-25-30c-4-5-8-7-14-7-6 0-10 2-14 7-4 4-6 8-6 14 0 6 2 10 6 14 4 4 8 6 14 6 6 0 10-2 14-6 5-4 7-8 7-14 0-4-2-10-7-14z"/>
<glyph glyph-name="ship" unicode="&#57402;" d="M188 174c5-2 7-4 11-4 2 0 4-2 6-2 14-4 28-2 41 4l8 4c14 8 33 8 47 0 16-10 39-10 55 0l4 2c7 4 15 6 23 6l10 37-280 12 45-51c10 0 22-4 30-8z m91 227l0-159 81-4c7 110-81 163-81 163z m-21-14l-61-141 61-4z m123-219c-8 0-16-2-23-6l-2-2c-8-4-18-6-26-6-11 0-21 2-29 8-8 4-16 6-25 6-8 0-16-2-22-6l-8-4c-8-4-17-6-27-6-10 0-18 2-26 8-11 4-19 6-29 6-6 0-10 0-14-2l0-14c4 2 10 4 14 4 6 0 14-2 18-7 11-6 23-10 35-10 12 0 23 2 33 8l8 5c4 2 10 4 16 4 7 0 13-2 17-4 10-7 22-11 37-11 12 0 22 2 32 8l2 3c5 2 11 4 17 4 6 0 12-2 18-4l0 14c-4 4-10 4-16 4z m-23-33l-2-2c-8-4-18-6-26-6-11 0-21 2-29 8-8 4-16 6-25 6-8 0-16-2-22-6l-8-4c-8-4-17-6-27-6-10 0-18 2-26 8-9 4-17 8-27 8-6 0-10 0-14-2l0-16c4 2 10 4 14 4 6 0 14-2 18-6 11-6 23-10 35-10 12 0 23 2 33 8l8 4c4 2 10 4 16 4 7 0 13-2 17-4 10-6 22-10 37-10 12 0 22 2 32 8l3 2c4 2 10 4 16 4 6 0 12-2 18-4l0 16c-6 2-12 4-18 4-8-2-14-4-23-8z"/>
<glyph glyph-name="ship-2" unicode="&#57403;" d="M252 330l-57-41 0 47 14 0 0 20 22 0 0 17c0 4 17 8 35 8 19 0 35-4 35-8l0-19 27 0 0-20 14 0 0-47-57 41c-11 8-25 8-33 2z m-80-92c-2 8 2 22 10 28l15 10 57 41c4 2 8 5 12 5l0-138c0-2 2-4 4-4 2 0 4 2 4 4l0 138c5 0 9-3 13-5l57-41 14-10c9-6 13-20 11-30l-33-84c-2-2-6-2-8-2-11 0-19 6-25 20 0 0-2 2-2 2 0 0-2 0-2-2 0 0 0 0 0-2-6-14-12-21-25-21-12 0-18 7-24 21 0 0-2 2-2 2 0 0-2 0-2-2 0 0 0 0 0-2-6-14-13-21-25-21-2 0-6 0-8 2z m113 32c0-4 2-6 6-6 4 0 6 2 6 6 0 4-2 6-6 6-2 0-6-4-6-6z m-45 0c0-4 2-6 6-6 4 0 6 2 6 6 0 4-2 6-6 6-4 0-6-4-6-6z m192-135l0-16-328 0 0 16c13 0 19 6 25 21 0 0 0 0 0 2 0 0 2 2 2 2 2 0 2 0 2-2 6-15 12-21 25-21 12 0 18 6 24 21 0 0 0 0 0 2 0 0 2 2 2 2 0 0 2 0 2-2 7-15 13-21 25-21 10 0 18 6 25 21 0 0 0 0 0 2 0 0 2 2 2 2 0 0 2 0 2-2 6-15 12-21 24-21 12 0 19 6 25 21 0 0 0 0 0 2 0 0 2 2 2 2 0 0 2 0 2-2 6-14 12-21 24-21 11 0 19 7 25 21 0 0 0 0 0 2 0 0 2 2 2 2 2 0 2 0 2-2 6-14 12-21 25-21 12 0 18 7 24 21 0 0 0 0 0 2 0 0 2 2 2 2 2 0 2 0 2-2 15-27 21-33 33-33z"/>
<glyph glyph-name="shopping" unicode="&#57404;" d="M397 340c-2 2-4 4-8 4l-207 0c0 0 0 0-2 0l-6 25c0 2-2 4-6 6l-43 16c-4 0-10-2-12-6-2-4 0-10 6-12l39-15 47-137c-2 0-4-2-4-4l-15-39c0-2 0-4 0-6 2-2 4-4 7-4l6 0c-4-4-6-12-6-18 0-15 12-27 26-27 14 0 27 12 27 27 0 6-2 14-6 18l59 0c-4-4-6-12-6-18 0-15 12-27 26-27 15 0 27 12 27 27 0 6-2 14-6 18l8 0c4 0 8 4 8 8 0 4-4 8-8 8l-143 0 8 25c2 0 2 0 4 0l135 0c4 0 8 2 8 6l39 119c0 0 0 4-2 6z m-176-203c-6 0-12 6-12 13 0 6 6 12 12 12 6 0 12-6 12-12 0-9-6-13-12-13z m103 0c-7 0-13 6-13 13 0 6 6 12 13 12 6 0 12-6 12-12 0-9-6-13-12-13z m47 168l-47 0 0 21 53 0z m-13-43l-32 0 0 25 41 0z m-96 0l0 25 43 0 0-25z m43-18l0-21-43 0 0 21z m-102 43l43 0 0-25-35 0z m59 18l0 21 43 0 0-21z m-16 21l0-21-51 0-9 21z m-29-82l29 0 0-21-21 0z m107-21l0 21 26 0-6-21z"/>
<glyph glyph-name="shopping-2" unicode="&#57405;" d="M350 285l2 0c-2 2-69 73-69 73 0 2 0 2 0 4 0 7-2 11-7 15-4 4-8 6-12 6l-20 0c-4 0-8-2-13-6-4-4-6-8-6-15l0-4c0 0-65-73-67-73l-35 0 0-41 12 0 0-86c0-8 2-15 8-21 7-6 13-8 21-8l184 0c8 0 14 2 21 8 6 6 8 13 8 21l0 86 12 0 0 41z m-164-121c0-2-2-6-4-8-2-2-4-4-8-4-4 0-6 2-8 4-2 2-4 4-4 8l0 69c0 5 2 7 4 9 2 2 4 4 8 4 4 0 6-2 8-4 2-2 4-4 4-9z m52 0c0-2-2-6-5-8-2-2-4-4-8-4-4 0-6 2-8 4-2 2-4 4-4 8l0 69c0 5 2 7 4 9 2 2 4 4 8 4 4 0 6-2 8-4 3-2 5-4 5-9z m59 0c0-2-2-6-4-8-2-2-4-4-8-4-4 0-6 2-9 4-2 2-4 4-4 8l0 69c0 5 2 7 4 9 3 2 5 4 9 4 4 0 6-2 8-4 2-2 4-4 4-9z m-109 121l54 57 24 0 53-57z m160-121c0-2-2-6-4-8-2-2-4-4-8-4-4 0-6 2-8 4-2 2-4 4-4 8l0 69c0 5 2 7 4 9 2 2 4 4 8 4 4 0 6-2 8-4 2-2 4-4 4-9z"/>
<glyph glyph-name="train-2" unicode="&#57406;" d="M367 131l-41 76c12 2 20 12 20 24l0 113c0 31-24 55-55 55l-72 0c-31 0-55-24-55-55l0-113c0-12 8-22 20-24l-41-76c-4-6-2-14 4-16 3-2 5-2 7-2 4 0 8 2 10 6l4 6 172 0 4-6c2-4 6-6 10-6 2 0 4 0 6 2 9 2 11 10 7 16z m-58 57l-106 0 10 19 84 0z m-2 41c-10 0-18 9-18 19 0 10 8 18 18 18 10 0 19-8 19-18 0-10-9-19-19-19z m-121 107c0 18 17 35 35 35l68 0c18 0 35-17 35-35l0-29c0-6-7-12-13-12l-110 0c-6 0-13 6-13 12z m19-70c10 0 18-8 18-18 0-10-8-19-18-19-10 0-19 9-19 19 0 10 9 18 19 18z m-25-121l15 25 124 0 15-25z"/>
<glyph glyph-name="train" unicode="&#57407;" d="M315 180c0 2 0 2 0 0 0 2 0 2 0 2 7 2 13 6 17 8 4 5 8 11 10 17l0 2c0 2 0 2 0 4l0 152c0 4-2 8-4 12-2 4-4 8-8 10-4 2-6 6-11 8-4 2-8 4-10 4l-106 0c-4 0-8 0-10-2-7-4-9-8-13-10-4-4-6-6-8-10-2-4-2-8-2-10l0-152c0-2 0-6 2-8 2-2 2-6 4-8 2-2 4-4 6-6 2-3 4-5 6-5 2-4 5-4 7-4 2 0 4-2 4-2l-45-67 26 0 33 47 88 0 33-47 26 0z m-84 205c0 2 0 2 2 4 0 0 0 0 3 0l40 0c0 0 3 0 3-2 2 0 2-2 2-2l0-16c0-2 0-2-2-2 0 0-3-2-3-2l-40 0c0 0-3 0-3 2 0 0-2 0-2 2 0 0-2 2-2 2l0 14z m-43-45c0 2 0 4 2 6 3 2 3 4 5 6 2 2 2 2 4 4 2 2 4 2 6 2l100 0c2 0 4 0 6-2 2 0 4-2 6-4 2-2 2-2 5-4 2-2 2-4 2-6l0-35c0-2 0-4-2-6-3-2-3-4-5-4-2-2-4-2-6-4-2 0-4-2-6-2l-98 0c0 0 0 0-2 0 0 0-2 0-2 0-4 0-6 2-10 6-3 6-5 10-5 14z m31-133c-4-4-8-6-12-6-4 0-8 2-12 6-2 4-5 8-5 12 0 4 3 8 5 12 4 5 8 5 12 5 4 0 8-3 12-5 4-2 4-6 4-12 0-4-2-8-4-12z m74 0c-4 4-4 8-4 12 0 4 2 8 6 12 4 2 8 5 12 5 4 0 8-3 12-5 3-4 5-8 5-12 0-4-2-8-5-12-2-4-6-6-12-6-8 2-12 4-14 6z"/>
<glyph glyph-name="statistics-3" unicode="&#57408;" d="M178 367c-2 4-2 4-2 6 0 2 2 4 4 6 25 16 51 24 82 24 74 0 135-57 141-131 0-2 0-4-2-6-2-2-4-2-6-2l-129 0c-2 0-4 2-6 2z m211-119l-137 0-88 104c-2 2-4 2-6 2-2 0-4 0-6-2-27-26-43-63-43-102 0-78 63-144 143-144 74 0 135 58 141 132 0 2 0 4-2 6 2 4 0 4-2 4z"/>
<glyph glyph-name="statistics-2" unicode="&#57409;" d="M123 223l67 0 0-100-67 0z m100 66l68 0 0-166-68 0z m101 100l67 0 0-266-67 0z"/>
<glyph glyph-name="statistics" unicode="&#57410;" d="M328 150l0 141-35 0 0-141-17 0 0 212-34 0 0-210-17 0 0 51-37 0 0-51-38 0 0 227-17 0 0-246 246 0 0 17z"/>
<glyph glyph-name="star-2" unicode="&#57411;" d="M395 272l-57-57 14-80c0-6-2-12-6-14-2-2-6-2-8-2-2 0-4 0-8 2l-72 37-74-39c-6-2-12-2-16 2-4 4-8 10-6 14l14 80-59 57c-4 4-6 11-4 17 2 6 6 10 12 10l80 12 35 74c2 6 8 8 14 8 6 0 10-4 14-8l37-72 80-12c6 0 10-4 12-10 4-8 2-15-2-19z"/>
<glyph glyph-name="star" unicode="&#57412;" d="M256 174l88-53-22 100 77 68-102 8-41 94-41-94-102-8 77-68-22-100z"/>
<glyph glyph-name="sound3" unicode="&#57413;" d="M360 256l37 37c4 4 4 8 0 12l-8 6c-4 4-8 4-12 0l-37-37-37 37c-4 4-8 4-12 0l-4-8c-4-4-4-8 0-12l37-37-37-35c-4-4-4-8 0-12l8-8c4-4 8-4 12 0l37 37 37-37c4-4 8-4 12 0l8 8c5 4 5 8 0 12z m-106-88c0-6-4-10-8-12-2 0-4-2-6-2-4 0-7 2-9 4l-67 59-39 0c-8 0-12 6-12 12l0 52c0 8 6 12 12 12l39 0 69 59c5 4 11 4 13 2 4-2 8-8 8-12z"/>
<glyph glyph-name="sound2" unicode="&#57414;" d="M256 166c0-6-4-10-8-12-2 0-4-2-6-2-4 0-6 2-9 4l-69 59-39 0c-8 0-12 6-12 12l0 52c0 8 6 12 12 12l39 0 69 59c5 4 11 4 13 2 4-2 8-8 8-12l0-174z m51 20c-2 0-2 0 0 0-4 0-8 2-10 4l-2 3c-4 4-6 12-2 16 10 12 14 29 14 45 0 16-6 35-16 47-4 6-4 14 0 18l2 3c2 2 6 4 10 4 4 0 8-2 10-4 15-19 23-41 23-66 0-25-8-43-21-63-4-5-6-7-8-7z m53-39c-2-2-6-4-10-4-4 0-8 2-10 4l-2 3c-6 4-6 12 0 16 20 24 33 57 33 90 0 35-13 66-35 92-4 6-4 12 0 17l2 2c2 0 6 2 10 2 4 0 8-2 10-4 27-31 41-70 41-111-2-39-14-76-39-107z"/>
<glyph glyph-name="sound" unicode="&#57415;" d="M98 270c-4 0-6-2-6-6l0-24c0-4 2-7 6-7 4 0 6 3 6 7l0 24c2 2-2 6-6 6z m29 0c-4 0-6-2-6-6l0-24c0-4 2-7 6-7 4 0 6 3 6 7l0 24c0 2-2 6-6 6z m29 11c-4 0-6-2-6-7l0-45c0-4 2-6 6-6 4 0 6 2 6 6l0 45c0 2-2 7-6 7z m28 12c-4 0-6-2-6-6l0-70c0-4 2-6 6-6 4 0 6 2 6 6l0 70c0 2-2 6-6 6z m29 20c-4 0-6-2-6-6l0-112c0-5 2-7 6-7 4 0 6 2 6 7l0 112c2 4-2 6-6 6z m29 52c-4 0-6-3-6-7l0-215c0-4 2-6 6-6 4 0 6 2 6 6l0 213c2 4-2 9-6 9z m28-19c-4 0-6-2-6-6l0-178c0-4 2-6 6-6 4 0 6 2 6 6l0 178c3 4-2 6-6 6z m27-37c-4 0-6-2-6-6l0-104c0-4 2-6 6-6 4 0 6 2 6 6l0 104c2 4-2 6-6 6z m31-20c-4 0-6-2-6-6l0-62c0-4 2-6 6-6 4 0 6 2 6 6l0 62c0 2-2 6-6 6z m28-10c-4 0-6-3-6-7l0-41c0-4 2-6 6-6 4 0 6 2 6 6l0 41c0 4-2 7-6 7z m29-9c-4 0-6-2-6-6l0-24c0-4 2-7 6-7 4 0 6 3 6 7l0 24c0 2-2 6-6 6z m29 0c-4 0-6-2-6-6l0-24c0-4 2-7 6-7 4 0 6 3 6 7l0 24c0 2-2 6-6 6z"/>
<glyph glyph-name="skype" unicode="&#57416;" d="M371 240c0 6 2 12 2 18 0 64-51 115-115 115-6 0-12 0-18-2-11 6-23 10-37 10-41-2-72-33-72-70 0-12 4-26 10-37 0-6-2-12-2-18 0-63 51-115 115-115 6 0 12 0 18 2 11-6 23-10 37-10 39 0 70 31 70 70 2 12-2 26-8 37z m-62-35c-4-6-12-12-20-17-10-4-21-6-33-6-14 0-29 2-37 8-6 5-12 9-16 17-4 6-6 12-6 18 0 4 2 6 4 11 2 2 6 4 10 4 4 0 6 0 8-2 2-2 4-5 6-9 2-4 4-8 6-10 2-2 7-6 11-8 4-2 10-2 16-2 8 0 16 2 23 6 6 4 8 8 8 14 0 4-2 9-4 11-2 2-6 4-13 6-4 2-12 4-20 4-10 2-21 6-29 8-8 4-14 8-18 12-4 6-6 13-6 21 0 8 2 14 6 20 4 6 12 11 20 15 8 4 19 4 31 4 10 0 18-2 25-4 6-2 12-4 16-9 4-4 8-8 10-12 2-4 4-8 4-12 0-4-2-6-4-10-2-2-6-4-10-4-4 0-6 0-8 2-2 2-4 4-6 8-2 6-7 10-11 12-4 2-10 4-18 4-8 0-14-2-18-4-5-4-7-6-7-12 0-2 0-4 2-6 2-2 5-4 7-7 2-2 6-2 8-4 2 0 8-2 14-4 8-2 16-4 23-6 6-2 12-4 18-8 4-4 8-8 12-12 2-4 4-11 4-19 2-4 0-12-8-18z"/>
<glyph glyph-name="site-map" unicode="&#57417;" d="M418 176l-33 0 0 76c0 6-4 10-10 10l-109 0 0 74 35 0c2 0 4 2 4 4l0 57c0 2-2 4-4 4l-86 0c-2 0-4-2-4-4l0-55c0-2 2-4 4-4l31 0 0-76-111 0c-6 0-10-4-10-10l0-76-31 0c-2 0-4-2-4-4l0-55c0-2 2-4 4-4l86 0c2 0 4 2 4 4l0 55c0 2-2 4-4 4l-35 0 0 66 101 0 0-66-33 0c-2 0-4-2-4-4l0-55c0-2 2-4 4-4l86 0c2 0 4 2 4 4l0 55c0 2-2 4-4 4l-33 0 0 66 101 0 0-66-33 0c-2 0-4-2-4-4l0-55c0-2 2-4 4-4l86 0c2 0 4 2 4 4l0 55c0 2-2 4-6 4z"/>
<glyph glyph-name="shopping-3" unicode="&#57418;" d="M203 176c-15 0-27-12-27-26 0-15 12-27 27-27 14 0 26 12 26 27 0 14-12 26-26 26z m-80 213l0-27 27 0 47-100-19-33c-2-4-2-10-2-12 0-14 12-27 27-27l159 0 0 27-153 0c-2 0-2 2-2 2l0 2 12 23 98 0c11 0 19 6 23 14l47 86c2 2 2 4 2 6 0 8-6 12-14 12l-197 0-12 27z m213-213c-14 0-27-12-27-26 0-15 13-27 27-27 14 0 26 12 26 27 0 14-12 26-26 26z"/>
<glyph glyph-name="twitter" unicode="&#57419;" d="M381 322c0-3 0-7 0-9 0-84-64-180-180-180-35 0-70 10-97 29 5 0 11 0 15 0 28 0 57 10 78 26-27 0-52 19-60 43 4 0 8-2 13-2 6 0 12 0 16 2-29 7-51 31-51 62 8-4 18-8 28-8-16 12-28 30-28 53 0 10 4 20 8 29 31-39 78-64 129-66-2 4-2 10-2 14 0 35 29 64 63 64 19 0 35-8 45-21 15 2 29 9 41 15-4-15-14-27-28-35 12 2 24 4 37 10-5-8-15-18-27-26z"/>
<glyph glyph-name="user" unicode="&#57420;" d="M266 260c37 0 66 35 66 80 0 43-10 80-66 80-55 0-65-35-65-80 0-45 28-80 65-80z m121-119c-2 76-10 99-88 111 0 0-10-14-35-14-24 0-35 14-35 14-75-14-86-35-88-109 0-6 0-6 0-6 0-2 0-4 0-8 0 0 19-37 123-37 105 0 123 37 123 37 0 2 0 4 0 6 0 0 0 2 0 6z"/>
<glyph glyph-name="user-2" unicode="&#57421;" d="M399 139l0-43-286 0 0 43c0 21 16 45 39 54l47 22 32-68 17 46c4 0 6-3 10-3 4 0 6 0 10 3l17-43 30 65 47-22c21-9 37-33 37-54z m-243 148l0 30c0 7 2 11 6 13 6 47 45 84 94 84 49 0 88-37 94-84 4-2 6-6 6-13l0-30c0-8-6-15-14-15-8 0-14 9-14 15l0 6c-9-39-37-76-72-76-35 0-63 39-72 76l0-6c0-6-4-13-10-15 6-20 19-36 37-47 4 2 8 0 12-2 6-4 10-10 8-14-2-4-10-6-16-2-4 2-8 6-8 10-21 12-35 33-41 55-6 4-10 9-10 15z m16 47c2 0 4-2 4-2 4-2 6-4 8-6 4 41 35 61 74 61 39 0 70-20 74-61 2 4 6 8 10 8-6 41-41 72-84 72-45 0-80-31-86-72z"/>
<glyph glyph-name="vimeo" unicode="&#57422;" d="M113 311l12-14c0 0 25 18 33 10 8-10 39-123 49-145 8-19 33-43 59-25 27 19 117 94 133 185 17 90-108 71-120-9 32 21 51-8 32-39-16-30-32-51-41-51-8 0-14 21-22 58-10 36-10 106-49 98-37-10-86-68-86-68z"/>
<glyph glyph-name="wifi" unicode="&#57423;" d="M256 205c-14 0-27-12-27-27 0-14 13-26 27-26 14 0 27 12 27 26 0 15-13 27-27 27z m141 90c-35 41-86 65-141 65-55 0-104-24-141-65-4-6-4-14 2-19 2-2 6-4 8-4 4 0 8 2 10 4 31 37 74 58 119 58 47 0 90-21 119-58 2-4 6-4 10-4 4 0 6 2 8 4 10 5 10 13 6 19z m-141 12c-39 0-76-16-100-47-4-6-4-14 2-18 2-2 6-4 8-4 4 0 8 2 10 4 21 24 49 37 80 37 31 0 59-15 80-37 2-4 6-4 10-4 4 0 6 2 8 4 6 4 6 12 2 18-24 31-61 47-100 47z m0-51c-23 0-45-10-59-29-4-6-4-14 2-18 2-2 6-4 8-4 4 0 8 2 10 4 10 12 25 18 41 18 16 0 31-6 41-18 2-4 6-4 10-4 4 0 6 2 8 4 7 4 7 12 2 18-18 19-38 29-63 29z"/>
<glyph glyph-name="wifi-2" unicode="&#57424;" d="M258 240c25 0 49-11 66-27l-23-23c-10 11-27 19-43 19-16 0-33-6-43-19l-22 23c18 16 40 27 65 27z m-108 18c28 29 67 45 108 45 41 0 80-16 109-45l-23-22c-22 22-53 36-86 36-33 0-63-12-86-36z m192 88c27-10 49-27 68-47l-23-23c-35 35-82 54-131 54-49 0-96-19-131-54l-23 23c21 20 43 35 68 47 27 10 55 16 84 16 35 3 61-4 88-16z m-98-182c0-8 6-17 16-17 8 0 16 7 16 17 0 8-6 16-16 16-10-2-16-8-16-16z"/>
<glyph glyph-name="woman" unicode="&#57425;" d="M399 109c0 2 0 6-2 8-6 30-14 82-51 108 2 19 4 45 4 86 0 66-43 119-94 119-35 0-57-24-57-24-23-23-37-54-37-93 0-41 2-67 4-86-37-26-45-77-51-108 0-2 0-6-2-8-2-15 8-29 22-31 2 0 2 0 4 0l234 0c2 0 2 0 4 0 14 4 24 16 22 29z m-143 61l-49 25 26 41c7-5 17-7 25-7 8 0 16 2 25 7l26-41z m0 80c-47 0-68 63-63 84 51 45 98 43 98 43 0 0 8-27 28-58-4-30-34-69-63-69z"/>
<glyph glyph-name="woman-symbol" unicode="&#57426;" d="M367 291c2 4 2 8 2 10 0 4 2 8 2 12 0 4 0 9 0 13 0 0 0 2 0 2 0 2 0 4 0 8 0 2 0 4 0 6 0 0 0 2 0 2 0 2 0 6-2 8-13 45-50 80-97 88l-2 0c-4 0-8 0-14 0-63 0-117-51-117-114 0-60 45-109 101-115l0-72-29 0c-8 0-14-6-14-14 0-8 6-14 14-14l29 0 0-23c0-8 6-14 14-14 8 0 14 6 14 14l0 23 29 0c8 0 14 6 14 14 0 8-6 14-14 14l-29 0 0 72c41 6 76 33 92 70 5 2 7 6 7 10z m-197 35c0 47 39 86 86 86 47 0 86-39 86-86 0-2 0-7 0-9-4-43-41-77-86-77-47-2-86 36-86 86z"/>
<glyph glyph-name="woman-2" unicode="&#57427;" d="M408 139c-9 54-35 58-56 58-4 0-14 0-18 0-19 0-35 14-39 32l41 0c2 17 4 39 4 76 0 57-37 105-84 105-31 0-51-23-51-23-19-18-33-49-33-82 0-35 2-59 4-74l41 0c-2-18-18-32-39-32-4 0-14 0-18 0-21-2-47-6-56-58-4-20 7-39 19-39l270 0c6-2 17 15 15 37z"/>
<glyph glyph-name="worldwide" unicode="&#57428;" d="M365 297c-5 4-9 8-13 12l-6-6c4-4 8-8 12-12-6-4-14-8-22-10-8 18-19 34-29 45 4-2 8-2 12-4l7 8c-17 8-33 12-52 12-36 0-67-16-90-43-2-2-4-4-6-8-14-19-22-43-22-68 0-24 8-49 22-67 2-2 4-4 6-9 21-26 54-43 90-43 37 0 70 17 91 43 2 3 4 5 6 9 14 18 22 43 22 67 0 25-8 49-22 68-4 2-4 4-6 6z m-125 29c-11-11-21-27-27-45-8 4-16 6-23 10 13 16 29 28 50 35z m-56-41c9-4 17-9 25-13-4-14-6-30-6-49l-37 0c0 23 6 45 18 62z m-18-72l39 0c0-14 2-29 6-41-10-4-18-8-25-12-12 16-18 35-20 53z m24-59c7 4 15 8 23 10 6-19 14-33 27-43-21 6-37 16-50 33z m78-39c-20 2-37 22-47 53 15 4 31 6 47 6z m0 69c-18 0-35-4-49-8-2 12-4 25-6 37l55 0z m0 39l-55 0c0 17 2 31 6 45 14-4 31-8 49-8z m0 47c-16 0-32 2-47 6 10 29 27 50 47 54z m11 60c20-2 36-23 47-54-15-4-29-6-47-6z m0-68c18 0 34 4 49 8 4-14 6-28 6-45l-55 0z m0-49l55 0c0-12-2-27-6-37-15 4-31 6-49 8z m0-98l0 59c16 0 32-2 47-6-11-31-29-49-47-53z m28 6c10 10 21 26 27 45 8-4 16-6 22-10-14-19-30-29-49-35z m55 39c-8 4-16 10-26 12 4 12 6 27 6 41l39 0c-2-18-8-37-19-53z m-20 63c0 17-2 33-6 49 10 4 18 9 26 13 13-17 21-39 21-62z m-221 2c0 86 69 156 155 156 9 0 19 0 27-2l10 6 4 10c-10 2-26 4-38 4-97 0-177-77-177-176 0-10 0-20 2-28 5-39 54-105 93-105-43 33-76 80-76 135z m285 121c-3 2-25 14-25 14 0 0 16 46 14 52-2 6-8 8-8 8l-27-47-26 12 0 18-8 9c0 0-2-21-7-25-2-8-16-18-16-18l6-7 19 11 22-17-28-47c0 0 6-6 10-4 6 2 33 37 33 37 0 0 28-14 32-14 2 0 11-4 13 4 4 8-2 12-4 14z"/>
<glyph glyph-name="x" unicode="&#57429;" d="M150 152c4-5 8-7 12-7 4 0 8 2 12 7l82 81 82-81c4-5 8-7 12-7 4 0 8 2 12 7 7 6 7 18 0 24l-81 82 77 78c7 6 7 18 0 24-6 7-18 7-24 0l-78-77-78 77c-6 9-18 9-24 0-7-6-7-18 0-24l77-78-81-82c-9-6-9-18 0-24z"/>
<glyph glyph-name="x-2" unicode="&#57430;" d="M246 240l102-103c4-4 14-4 19 0 6 6 6 15 0 19l-103 102 98 98c3 2 5 6 5 11 0 4-2 6-5 10-4 6-14 4-18 0l-98-101-99 99c-4 6-14 6-18 0-2-2-4-6-4-10 0-5 2-7 4-11l98-98-102-102c-6-7-6-15 0-19 4-4 14-4 18 0z"/>
<glyph glyph-name="xlsx" unicode="&#57431;" d="M373 299l-8 0 0 35c0 2 0 2-3 4l-57 65c0 0 0 0-2 0 0 0 0 0-2 0 0 0 0 0-2 0l-143 0c-6 0-13-6-13-12l0-96-4 0c-10 0-16-8-16-16l0-89c0-10 8-16 16-16l8 0 0-59c0-6 7-13 13-13l194 0c6 0 13 7 13 13l0 59 8 0c10 0 16 8 16 16l0 89c-2 12-10 20-18 20z m-213 96l137 0 0-59c0-4 2-6 6-6l51 0 0-29-194 0z m119-162c-13 5-19 11-19 21 0 12 10 20 27 20 8 0 14-2 18-4l-4-12c-2 2-8 4-14 4-6 0-11-4-11-6 0-4 5-6 13-10 12-4 18-10 18-21 0-12-8-22-28-22-9 0-17 2-21 4l4 12c4-2 10-4 19-4 8 0 10 2 10 8 0 4-4 8-12 10z m-27-16l0-12-43 0 0 69 16 0 0-57z m-94-12l-19 0 21 35-19 34 19 0 4-12c2-4 4-8 6-12 2 4 2 8 4 12l6 12 19 0-21-34 21-35-17 0-6 12c-2 4-4 8-6 12-2-4-4-8-6-12z m194-84l-192 0 0 57 194 0 0-57z m2 84l-6 12c-2 4-4 8-6 12-2-4-4-8-6-12l-6-12-19 0 21 35-19 34 19 0 6-12c2-4 4-8 6-12 2 4 2 8 4 12l6 12 19 0-21-34 21-35z"/>
<glyph glyph-name="youtube" unicode="&#57432;" d="M342 262l-172 0c-27 0-49-22-49-49l0-41c0-27 22-49 49-49l172 0c27 0 49 22 49 49l0 41c0 27-20 49-49 49z m-137-31l-17 0 0-79-16 0 0 79-16 0 0 15 47 0 0-15z m47-79l-14 0 0 8c-2-2-7-4-9-6-2-2-6-2-8-2-4 0-6 0-8 4-2 2-2 4-2 10l0 57 14 0 0-53c0-2 0-2 0-4l2-2c0 0 2 0 4 2 2 0 2 2 5 4l0 53 14 0z m49 14c0-4-2-8-4-10-2-2-6-4-10-4-2 0-4 0-8 2-3 0-5 2-7 4l0-6-14 0 0 94 14 0 0-31c2 2 4 4 7 4 2 2 4 2 6 2 4 0 8-2 10-4 2-2 4-8 4-12z m47 18l-26 0 0-12c0-4 0-6 2-8 0-2 2-2 4-2 2 0 4 0 4 2 0 2 2 4 2 8l0 4 14 0 0-4c0-6-2-12-6-16-4-4-8-6-16-6-7 0-11 2-15 6-4 4-6 8-6 16l0 31c0 6 2 10 6 14 4 4 8 6 15 6 6 0 10-2 14-6 4-4 4-8 4-14l0-19z m-20 27c-2 0-4 0-4-2 0-2-2-4-2-6l0-6 12 0 0 6c0 2 0 4-2 6 0 0-2 2-4 2z m-47 0l-2 0-3-2 0-43c3-2 3-2 5-2 2 0 2 0 4 0 2 0 2 0 4 2 0 0 2 2 2 4l0 35c0 2 0 4-2 6-4-2-6 0-8 0z m-88 76l16 0 0 43 20 59-16 0-12-41-13 41-16 0 21-61z m61-2c6 0 12 2 16 6 4 4 6 8 6 14l0 39c0 6-2 10-6 14-4 4-10 7-16 7-6 0-12-3-16-7-5-4-7-8-7-14l0-39c0-6 2-12 7-16 4-2 8-4 16-4z m-6 61c0 2 0 2 2 4 2 0 2 2 4 2 2 0 4 0 4-2 2-2 2-2 2-4l0-41c0-2 0-4-2-4-2-2-2-2-4-2-2 0-4 0-4 2-2 2-2 2-2 4z m51-61c2 0 6 0 8 2 4 2 6 4 8 6l0-8 17 0 0 75-17 0 0-57c-2-2-2-2-4-4-2-2-4-2-4-2-2 0-2 0-4 2 0 0 0 2 0 4l0 57-16 0 0-63c0-4 0-8 2-10 4 0 6-2 10-2z"/>
</font>
</defs>
</svg>
